<?xml version="1.0" encoding="UTF-8" standalone="no"?>
<svg width="428px" height="450px" viewBox="0 0 428 450" version="1.1" xmlns="http://www.w3.org/2000/svg" xmlns:xlink="http://www.w3.org/1999/xlink">
    <defs></defs>
    <g id="helfigur" stroke="none" stroke-width="1" fill="none" fill-rule="evenodd">
        <g id="are">
            <g id="Imported-Layers">
                <path d="M197.701407,124.901715 C196.684306,124.901715 195.679087,124.893404 194.686938,124.872032 L194.717831,123.206201 C195.700475,123.226385 196.696188,123.237071 197.701407,123.237071 L198.035292,123.237071 L198.038857,124.901715 L197.701407,124.901715 L197.701407,124.901715 Z M201.351565,123.194327 C202.447087,123.17058 203.550927,123.133773 204.667837,123.087467 L204.667837,123.083905 L204.741506,124.750923 C203.610337,124.800792 202.494615,124.835224 201.390775,124.860158 L201.351565,123.194327 L201.351565,123.194327 Z M187.981913,124.577573 L188.098357,122.917678 C189.183185,122.99248 190.288213,123.055409 191.406312,123.102902 L191.331455,124.767546 C190.200287,124.717678 189.085753,124.653562 187.981913,124.577573 L187.981913,124.577573 Z M207.982921,122.917678 C209.079632,122.85 210.183472,122.772823 211.296817,122.687335 L211.425143,124.348417 C210.302292,124.433905 209.188947,124.511082 208.086295,124.581135 L207.982921,122.917678 L207.982921,122.917678 Z M181.295899,123.923351 L181.509775,122.269393 C182.58391,122.410686 183.682997,122.534169 184.796343,122.642216 L184.635935,124.300923 C183.501202,124.188127 182.390233,124.064644 181.295899,123.923351 L181.295899,123.923351 Z M214.603584,122.397625 C215.69673,122.297889 216.798194,122.18153 217.909163,122.061609 L218.093334,123.716755 C216.974048,123.83905 215.863079,123.954222 214.761615,124.056332 L214.603584,122.397625 L214.603584,122.397625 Z M174.656225,122.831003 L174.99011,121.198417 C176.04761,121.412137 177.130062,121.612797 178.237466,121.794459 L177.967744,123.438918 C176.837764,123.252507 175.736301,123.051847 174.656225,122.831003 L174.656225,122.831003 Z M221.206424,121.667414 C222.297194,121.529683 223.396281,121.384828 224.497744,121.226913 L224.500121,121.226913 L224.733008,122.876121 C223.620851,123.031662 222.514635,123.182454 221.415548,123.321372 L221.206424,121.667414 L221.206424,121.667414 Z M227.784312,120.736544 C228.871517,120.566755 229.967039,120.388654 231.062562,120.198681 L231.066126,120.198681 L231.34773,121.840765 C230.237949,122.030739 229.137674,122.211214 228.04334,122.383377 L227.784312,120.736544 L227.784312,120.736544 Z M168.112795,121.187731 L168.601146,119.596702 C169.623,119.908971 170.682876,120.198681 171.77127,120.471768 L171.774834,120.471768 L171.370846,122.086544 C170.251559,121.811082 169.165542,121.510686 168.112795,121.187731 L168.112795,121.187731 Z M234.336059,119.615699 C235.416135,119.417414 236.506904,119.207256 237.598862,118.992348 L237.92443,120.627309 C236.824154,120.844591 235.72982,121.052375 234.639051,121.256596 L234.336059,119.615699 L234.336059,119.615699 Z M161.768983,118.823747 L162.461705,117.306332 C163.425337,117.744459 164.434121,118.160026 165.486868,118.551847 L164.907025,120.110818 C163.818632,119.707124 162.770638,119.278496 161.768983,118.823747 L161.768983,118.823747 Z M240.856913,118.323879 C241.933424,118.094723 243.015876,117.856069 244.101893,117.613852 L244.470236,119.235752 C243.37709,119.485092 242.28632,119.722559 241.203868,119.951715 L240.856913,118.323879 L240.856913,118.323879 Z M247.340933,116.861082 C248.411503,116.602243 249.491579,116.337467 250.565713,116.067942 L250.565713,116.06438 L250.975643,117.68153 C249.889626,117.955805 248.805986,118.22058 247.727098,118.480607 L247.340933,116.861082 L247.340933,116.861082 Z M155.839854,115.464776 L156.805862,114.107652 C157.657803,114.712005 158.572719,115.28905 159.547045,115.838786 L158.73075,117.28971 C157.708896,116.71504 156.745264,116.107124 155.839854,115.464776 L155.839854,115.464776 Z M253.788118,115.234433 C254.852747,114.95066 255.923317,114.659763 256.993888,114.365303 L256.993888,114.360554 L257.443028,115.968206 C256.362952,116.266227 255.287629,116.560686 254.213494,116.845646 L253.788118,115.234433 L253.788118,115.234433 Z M159.547045,115.838786 L159.548233,115.835224 L159.548233,115.839974 L159.547045,115.838786 L159.547045,115.838786 Z M260.192528,113.45343 C260.735537,113.29314 261.278545,113.13285 261.822742,112.970185 C262.341986,112.815831 262.858854,112.66029 263.37691,112.501187 L263.861697,114.096966 C263.344829,114.253694 262.820831,114.413984 262.298022,114.56715 C261.751449,114.73219 261.2025,114.89248 260.658303,115.051583 L260.192528,113.45343 L260.192528,113.45343 Z M150.824452,110.760554 L152.138604,109.737071 C152.773104,110.551583 153.497907,111.334037 154.303508,112.082058 L153.169963,113.303826 C152.303764,112.497625 151.518362,111.651055 150.824452,110.760554 L150.824452,110.760554 Z M266.550598,111.516887 C267.611663,111.179683 268.666787,110.836544 269.713593,110.491029 L270.238778,112.074934 C269.186031,112.419261 268.12259,112.76715 267.054396,113.104354 L266.550598,111.516887 L266.550598,111.516887 Z M272.864705,109.428364 C273.916264,109.06504 274.960694,108.698153 275.997994,108.322955 L276.56239,109.891425 C275.517961,110.266623 274.465213,110.639446 273.407713,111.00277 L272.864705,109.428364 L272.864705,109.428364 Z M279.12059,107.183113 C280.16502,106.791293 281.199944,106.398285 282.228927,106.00409 L282.832534,107.554749 C281.796421,107.958443 280.754368,108.353826 279.703997,108.746834 L279.12059,107.183113 L279.12059,107.183113 Z M147.744632,104.860686 C147.716115,104.770449 147.689975,104.675462 147.663834,104.580475 L149.267907,104.134037 C149.29286,104.219525 149.315435,104.302639 149.341576,104.384565 C149.618427,105.311873 149.97964,106.205937 150.42284,107.069129 L150.42284,107.071504 L148.939963,107.831398 C148.451612,106.880343 148.051188,105.887731 147.744632,104.860686 L147.744632,104.860686 Z M285.323006,104.782322 C286.354365,104.365567 287.379784,103.944063 288.395697,103.520185 L289.039702,105.056596 C288.015472,105.485224 286.981736,105.907916 285.944435,106.32942 L285.323006,104.782322 L285.323006,104.782322 Z M291.451753,102.220053 C292.475983,101.775989 293.487143,101.325989 294.491174,100.872427 L294.493551,100.874802 L295.179143,102.391029 C294.166795,102.845778 293.146129,103.296966 292.118334,103.744591 L291.451753,102.220053 L291.451753,102.220053 Z M147.01864,99.8358839 C147.01864,99.1175462 147.062604,98.3956464 147.141025,97.6654354 L148.798567,97.851847 C148.726087,98.5203166 148.685688,99.1804749 148.685688,99.8358839 C148.685688,100.233641 148.698758,100.629024 148.728463,101.023219 L147.067357,101.141953 C147.032899,100.709763 147.01864,100.271636 147.01864,99.8358839 L147.01864,99.8358839 Z M297.510396,99.4856201 C298.51918,99.0118734 299.519646,98.5345646 300.507042,98.0536939 L301.240163,99.5497361 C300.242073,100.035356 299.235666,100.516227 298.220941,100.993536 L297.510396,99.4856201 L297.510396,99.4856201 Z M303.483489,96.5766491 C304.479202,96.073219 305.464222,95.5674142 306.434983,95.0544855 L307.212067,96.5315303 C306.236553,97.0456464 305.242028,97.5585752 304.236809,98.0643799 L303.483489,96.5766491 L303.483489,96.5766491 Z M300.507042,98.0536939 L300.509419,98.0536939 L300.507042,98.0536939 L300.507042,98.0536939 Z M309.360337,93.4848285 C310.340604,92.9493404 311.306612,92.4102902 312.261927,91.8688654 L313.087728,93.3138522 C312.126472,93.8600264 311.152146,94.4062005 310.16475,94.946438 L309.360337,93.4848285 L309.360337,93.4848285 Z M147.799289,94.2755937 C148.091587,93.1986807 148.465871,92.1170185 148.915011,91.0282322 L150.458486,91.6658311 C150.031921,92.6952507 149.68259,93.7116095 149.406927,94.7137203 L147.799289,94.2755937 L147.799289,94.2755937 Z M312.258362,91.8653034 L312.261927,91.8664908 L312.261927,91.8688654 L312.258362,91.8653034 L312.258362,91.8653034 Z M315.129059,90.1970976 C316.090315,89.6236148 317.036124,89.0489446 317.96411,88.4730871 L318.846944,89.8836412 C317.907076,90.46781 316.951761,91.0507916 315.982188,91.6242744 L315.129059,90.1970976 L315.129059,90.1970976 Z M150.388382,87.948285 C150.912379,86.9782322 151.494598,86.0034301 152.129098,85.0298153 L153.526424,85.9381266 C152.912124,86.8773087 152.356045,87.8117414 151.855812,88.7366755 L151.855812,88.7402375 L150.388382,87.948285 L150.388382,87.948285 Z M317.961733,88.4707124 L317.965298,88.4730871 L317.96411,88.4730871 L317.961733,88.4707124 L317.961733,88.4707124 Z M320.764702,86.6920844 C321.703382,86.0806069 322.624239,85.467942 323.523708,84.8540897 L323.523708,84.8576517 L324.464764,86.2290237 C323.552225,86.8511873 322.619486,87.4709763 321.677242,88.0872032 L320.764702,86.6920844 L320.764702,86.6920844 Z M326.23875,82.9543536 C327.152478,82.3013193 328.042441,81.644723 328.90864,80.9905013 L329.915048,82.3167546 C329.036966,82.9840369 328.137497,83.6465699 327.213076,84.3067282 L326.23875,82.9543536 L326.23875,82.9543536 Z M154.081315,82.2562005 C154.74552,81.3775726 155.450124,80.5025066 156.198691,79.6226913 L157.468879,80.7007916 C156.740511,81.5580475 156.05373,82.4093668 155.412101,83.2618734 L154.081315,82.2562005 L154.081315,82.2562005 Z M331.521497,78.9565963 C332.394826,78.2548813 333.246767,77.5507916 334.069003,76.8490765 L335.151455,78.1135884 C334.313772,78.8295515 333.453514,79.5419525 332.567115,80.2567282 L331.521497,78.9565963 L331.521497,78.9565963 Z M158.451522,77.1067282 C159.201278,76.3064644 159.989056,75.5050132 160.810104,74.703562 L161.976919,75.8956464 C161.172506,76.6792876 160.401362,77.4641161 159.664677,78.2501319 L158.451522,77.1067282 L158.451522,77.1067282 Z M336.548781,74.6596306 C337.374581,73.9009235 338.173053,73.144591 338.94182,72.3846966 L338.944197,72.3846966 L340.114576,73.5720317 C339.331551,74.3449868 338.516444,75.1155673 337.675197,75.8897098 L336.548781,74.6596306 L336.548781,74.6596306 Z M163.262553,72.4025066 C164.078848,71.6616095 164.92366,70.9242744 165.793424,70.189314 L166.868747,71.4609499 C166.012053,72.1840369 165.182688,72.910686 164.38184,73.6337731 L163.262553,72.4025066 L163.262553,72.4025066 Z M341.233862,70.0218997 C342.000253,69.1943272 342.726244,68.3703166 343.413025,67.5510554 L344.692719,68.623219 C343.988115,69.4638522 343.241924,70.3092348 342.460087,71.1534301 L341.233862,70.0218997 L341.233862,70.0218997 Z M168.393211,68.0592348 C169.253469,67.3753298 170.141056,66.6902375 171.046466,66.0110818 L172.050497,67.3397098 C171.152216,68.0129288 170.280076,68.6873351 169.429323,69.3617414 L168.393211,68.0592348 L168.393211,68.0592348 Z M345.447228,64.9769129 C346.117374,64.0721636 346.736427,63.1745383 347.303199,62.2816623 L347.306764,62.2816623 L348.710031,63.1769129 C348.118306,64.105409 347.477865,65.033905 346.785143,65.9683377 L345.447228,64.9769129 L345.447228,64.9769129 Z M174.722764,65.3853562 L173.755567,64.0294195 C174.656225,63.3894459 175.574705,62.7494723 176.511008,62.11781 L177.447312,63.4951187 C176.521702,64.1255937 175.612728,64.7548813 174.726329,65.3853562 L174.722764,65.3853562 L174.722764,65.3853562 Z M179.306848,60.2667546 C180.236022,59.6695251 181.180643,59.0722955 182.140711,58.4762533 L183.018792,59.8963061 C182.067042,60.4840369 181.130739,61.0741425 180.213447,61.66781 L179.306848,60.2667546 L179.306848,60.2667546 Z M348.936978,59.4629288 C349.455034,58.471504 349.906551,57.4907652 350.291528,56.5207124 L351.840944,57.13219 C351.43339,58.1616095 350.959298,59.1957784 350.416289,60.2346966 L348.936978,59.4629288 L348.936978,59.4629288 Z M185.009031,56.7474934 C185.959593,56.1846966 186.926789,55.6266491 187.907056,55.0697889 L188.73048,56.5183377 C187.758531,57.0680739 186.80084,57.6261214 185.857407,58.1817942 L185.009031,56.7474934 L185.009031,56.7474934 Z M351.282489,53.4621372 C351.548646,52.3970976 351.730441,51.3486807 351.815992,50.3192612 L353.479475,50.4629288 C353.380854,51.5873351 353.183612,52.7224274 352.899632,53.8682058 L351.282489,53.4621372 L351.282489,53.4621372 Z M351.234961,44.2412929 C351.215949,44.1807388 351.199315,44.11781 351.180303,44.0584433 L352.770118,43.5645119 C352.791506,43.628628 352.811705,43.6998681 352.831904,43.7627968 C353.147966,44.8183377 353.35709,45.8952507 353.464028,46.9875989 L351.805298,47.1526385 C351.705489,46.1624011 351.518941,45.1923483 351.234961,44.2412929 L351.234961,44.2412929 Z M348.152764,38.5325858 L348.15514,38.5325858 L349.441963,37.4758575 C350.190531,38.3901055 350.846419,39.3470976 351.397744,40.3503958 L349.93982,41.155409 C349.437211,40.2459103 348.841921,39.369657 348.152764,38.5325858 L348.152764,38.5325858 Z M343.388073,34.2546174 L343.391638,34.2546174 L344.333882,32.878496 C345.305831,33.5457784 346.210053,34.2486807 347.040607,34.9895778 L345.933202,36.2327177 C345.158494,35.5416887 344.30893,34.880343 343.388073,34.2546174 L343.388073,34.2546174 Z M337.688267,31.1236148 L338.361978,29.6002639 C339.428983,30.0716359 340.447272,30.5703166 341.418034,31.0986807 L340.62075,32.5591029 C339.69514,32.0544855 338.71725,31.5795515 337.688267,31.1236148 L337.688267,31.1236148 Z M331.523874,28.8926121 L331.996778,27.2932718 C333.106559,27.6245383 334.177129,27.9724274 335.213242,28.346438 L334.646469,29.9101583 C333.646003,29.5492084 332.602761,29.2120053 331.523874,28.8926121 L331.523874,28.8926121 Z M325.123028,27.3324538 L325.446219,25.6974934 C326.571447,25.9207124 327.668157,26.1593668 328.735163,26.4217678 L328.345433,28.0401055 C327.299815,27.7860158 326.223303,27.5497361 325.123028,27.3324538 L325.123028,27.3324538 Z M318.597421,26.294723 L318.80298,24.6395778 C319.934149,24.7796834 321.042742,24.9364116 322.129947,25.1073879 L321.870919,26.7530343 C320.802725,26.5868074 319.710767,26.4324538 318.597421,26.294723 L318.597421,26.294723 Z M312.005275,25.674934 L312.007652,25.674934 L312.113402,24.0102902 C313.248135,24.087467 314.363857,24.1753298 315.460567,24.278628 L315.304913,25.9361478 C314.222461,25.8364116 313.123374,25.7485488 312.005275,25.674934 L312.005275,25.674934 Z" id="Fill-1" fill="#FFFFFF"></path>
                <path d="M213.423699,183.120317 L241.441508,94.2720317 L246.515132,95.871372 L218.494947,184.717282 L213.423699,183.120317" id="Fill-2" fill="#000000"></path>
                <path d="M318.586728,158.726517 L318.586728,157.152111 L318.623562,157.152111 C319.677497,157.152111 320.695787,157.110554 321.673677,157.036939 L321.800815,158.605409 C320.776584,158.687335 319.717896,158.726517 318.623562,158.726517 L318.586728,158.726517 L318.586728,158.726517 Z M312.198952,158.316887 L312.390253,156.750792 C313.448941,156.880211 314.481489,156.977573 315.486708,157.046438 L315.383334,158.617282 C314.346034,158.550792 313.287346,158.448681 312.198952,158.316887 L312.198952,158.316887 Z M324.719039,156.641557 C325.759904,156.448021 326.747301,156.20343 327.674098,155.901847 L328.162449,157.401451 C327.165548,157.725594 326.111612,157.986807 325.004208,158.188654 L324.719039,156.641557 L324.719039,156.641557 Z M305.910986,157.26847 L306.236553,155.724934 C307.278607,155.943404 308.302837,156.135752 309.306868,156.303166 L309.043087,157.86095 C308.018857,157.686412 306.976803,157.490501 305.910986,157.26847 L305.910986,157.26847 Z M299.738275,155.759367 L300.157711,154.241953 C301.184317,154.526913 302.194289,154.791689 303.186438,155.03153 L302.810966,156.56438 C301.800994,156.316227 300.777952,156.047889 299.738275,155.759367 L299.738275,155.759367 Z M330.461621,154.741821 C331.371784,154.266887 332.199961,153.718338 332.946152,153.097361 L333.953747,154.309631 C333.119629,155.006596 332.19402,155.613325 331.191177,156.136939 L330.461621,154.741821 L330.461621,154.741821 Z M327.674098,155.901847 L327.676475,155.901847 L327.674098,155.901847 L327.674098,155.901847 Z M293.66775,153.897625 L294.167983,152.403958 C295.173202,152.739974 296.170104,153.058179 297.151559,153.36095 L297.152747,153.36095 L296.686972,154.867678 C295.691258,154.56372 294.686039,154.239578 293.66775,153.897625 L293.66775,153.897625 Z M287.701787,151.753298 L288.263806,150.283377 C289.255955,150.662137 290.235034,151.027836 291.205795,151.376913 L291.203419,151.376913 L290.672292,152.858707 C289.688461,152.506069 288.698688,152.137995 287.701787,151.753298 L287.701787,151.753298 Z M334.980354,150.956596 C335.573267,150.163456 336.059242,149.308575 336.452537,148.387203 L337.90452,149.005805 C337.466073,150.034037 336.912371,151.002902 336.250542,151.896966 L334.980354,150.956596 L334.980354,150.956596 Z M281.826126,149.372691 L282.446368,147.922955 C283.419506,148.338522 284.385514,148.738654 285.344393,149.131662 L285.342017,149.131662 L284.750292,150.590897 C283.784284,150.197889 282.809958,149.791821 281.826126,149.372691 L281.826126,149.372691 Z M276.043146,146.786675 L276.712104,145.359499 C277.668607,145.805937 278.620357,146.241689 279.566166,146.66438 L278.924537,148.101055 C277.968034,147.675989 277.009154,147.236675 276.043146,146.786675 L276.043146,146.786675 Z M337.322301,145.535224 C337.508848,144.585356 337.619351,143.586807 337.651433,142.536016 L339.226989,142.579947 C339.193719,143.711478 339.076087,144.800264 338.86934,145.839182 L337.322301,145.535224 L337.322301,145.535224 Z M270.346904,144.022559 L271.058638,142.61438 C272.00207,143.089314 272.939562,143.554749 273.874677,144.008311 L273.184331,145.423615 C272.244463,144.967678 271.299843,144.499868 270.346904,144.022559 L270.346904,144.022559 Z M264.736213,141.098153 L265.483593,139.711346 C266.413955,140.212401 267.340753,140.700396 268.26161,141.182454 L267.530865,142.577573 C266.604067,142.096702 265.67014,141.600396 264.736213,141.098153 L264.736213,141.098153 Z M337.64668,142.536016 L337.651433,142.536016 L337.64668,142.536016 L337.64668,142.536016 Z M259.203944,138.026517 L259.988157,136.659894 C260.903073,137.183509 261.816801,137.696438 262.726963,138.202243 L261.959385,139.579551 C261.044469,139.071372 260.125989,138.553694 259.203944,138.026517 L259.203944,138.026517 Z M337.065649,136.455673 L338.610312,136.142216 C338.831317,137.234565 338.996478,138.298417 339.101039,139.33496 L337.530236,139.490501 C337.431615,138.513325 337.277149,137.502902 337.065649,136.455673 L337.065649,136.455673 Z M253.750096,134.820712 L254.56639,133.473087 C255.469424,134.018074 256.368893,134.553562 257.267174,135.080739 L256.468702,136.43905 C255.563292,135.908311 254.657882,135.370449 253.750096,134.820712 L253.750096,134.820712 Z M335.367708,130.511873 L336.849396,129.97876 C337.222492,131.012929 337.551624,132.026913 337.840357,133.020712 L336.324211,133.460026 C336.046171,132.497098 335.727733,131.516359 335.367708,130.511873 L335.367708,130.511873 Z M248.374669,131.487863 L249.220669,130.160422 C250.109444,130.723219 250.998219,131.282454 251.88343,131.831003 L251.054065,133.171504 C250.161725,132.618206 249.268197,132.055409 248.374669,131.487863 L248.374669,131.487863 Z M335.36652,130.509499 C335.36652,130.511873 335.367708,130.511873 335.367708,130.511873 L335.36652,130.513061 L335.36652,130.509499 L335.36652,130.509499 Z M243.075287,128.041029 L243.949803,126.727836 C244.825508,127.312005 245.698837,127.88905 246.574542,128.457784 L245.711907,129.779288 C244.836202,129.205805 243.955744,128.626385 243.075287,128.041029 L243.075287,128.041029 Z M332.955657,124.771108 L332.959222,124.771108 L334.380312,124.094327 C334.85084,125.076253 335.283346,126.047493 335.687334,127.003298 L334.234163,127.613588 C333.840868,126.680343 333.413115,125.734037 332.955657,124.771108 L332.955657,124.771108 Z M237.850761,124.476649 L238.751419,123.184828 C239.61643,123.786807 240.476688,124.379288 241.340511,124.969393 L240.452924,126.269525 C239.587913,125.681794 238.716961,125.08219 237.850761,124.476649 L237.850761,124.476649 Z M232.703469,120.805409 L233.630267,119.531398 C234.479831,120.152375 235.332961,120.76504 236.182525,121.37058 L235.266421,122.655277 C234.412104,122.044987 233.55541,121.42876 232.703469,120.805409 L232.703469,120.805409 Z M330.057632,119.235752 L330.061197,119.235752 L331.431194,118.459235 C331.965885,119.400792 332.474435,120.3281 332.955657,121.248285 L331.561896,121.980871 C331.087803,121.074934 330.58757,120.163061 330.057632,119.235752 L330.057632,119.235752 Z M228.181171,117.448813 C227.998188,117.309894 227.812829,117.168602 227.628657,117.029683 L228.586348,115.775858 C228.766955,115.913588 228.951126,116.053694 229.13411,116.192612 C229.789997,116.688918 230.44232,117.1781 231.098208,117.66847 L230.15834,118.92942 C229.498888,118.440237 228.840624,117.945119 228.181171,117.448813 L228.181171,117.448813 Z M326.807899,113.891557 L328.130368,113.037863 C328.713775,113.940237 329.278171,114.835488 329.817615,115.723615 L328.470194,116.544063 C327.937879,115.670185 327.381801,114.783245 326.807899,113.891557 L326.807899,113.891557 Z M222.634643,113.15066 L223.618475,111.915831 C224.43477,112.564116 225.26057,113.213588 226.091124,113.858311 L225.121551,115.103826 C224.288621,114.451979 223.458067,113.803694 222.634643,113.15066 L222.634643,113.15066 Z M323.272997,108.715963 L324.556256,107.800528 C325.18125,108.669657 325.784857,109.536412 326.371829,110.394855 L325.071935,111.285356 C324.492093,110.435224 323.889674,109.579156 323.272997,108.715963 L323.272997,108.715963 Z M217.721427,109.170712 L218.729022,107.958443 C219.533435,108.623351 220.342601,109.287071 221.163649,109.949604 L220.170312,111.173747 C219.346888,110.508839 218.530593,109.839182 217.721427,109.170712 L217.721427,109.170712 Z M212.892573,105.089842 L213.925121,103.895383 C214.714087,104.579288 215.512559,105.259631 216.315784,105.939974 L215.297494,107.142744 C214.489517,106.457652 213.68748,105.774934 212.892573,105.089842 L212.892573,105.089842 Z M319.515902,103.693536 L320.759949,102.725858 C321.417025,103.567678 322.058654,104.409499 322.683649,105.244195 L321.421778,106.185752 C320.800348,105.359367 320.16466,104.527045 319.515902,103.693536 L319.515902,103.693536 Z M208.155211,100.899736 L209.211522,99.7313984 C209.985042,100.431926 210.765691,101.131266 211.555846,101.82467 L211.555846,101.82942 L210.512604,103.008443 C209.717697,102.305541 208.931107,101.603826 208.155211,100.899736 L208.155211,100.899736 Z M203.511716,96.6087071 L204.596545,95.4629288 C205.349865,96.1788918 206.117444,96.8948549 206.888587,97.6120053 L205.819205,98.7684697 C205.039744,98.0465699 204.269789,97.3294195 203.511716,96.6087071 L203.511716,96.6087071 Z M198.965654,92.2048813 L200.077812,91.0887863 C200.818062,91.821372 201.566629,92.5563325 202.322326,93.2901055 L201.224427,94.4204485 C200.462789,93.6819261 199.709469,92.9422164 198.965654,92.2048813 L198.965654,92.2048813 Z M194.536037,87.6906332 L195.676711,86.5994723 C196.393197,87.3546174 197.122753,88.1050132 197.863003,88.8577836 L197.863003,88.8613456 L196.737775,89.9620053 C195.991584,89.2044855 195.257275,88.4457784 194.536037,87.6906332 L194.536037,87.6906332 Z M190.225239,83.0564644 L191.39443,81.9997361 C192.090716,82.771504 192.800073,83.5444591 193.517747,84.3162269 L192.362815,85.3883905 C191.639199,84.610686 190.926278,83.8317942 190.225239,83.0564644 L190.225239,83.0564644 Z M186.048708,78.2988127 L187.251169,77.2777045 C187.922503,78.066095 188.606907,78.8616095 189.304382,79.6559367 L188.118556,80.6960422 C187.416329,79.8922164 186.725983,79.0955145 186.048708,78.2988127 L186.048708,78.2988127 Z M182.02902,73.4058047 L183.26475,72.4298153 C183.906379,73.2383905 184.563455,74.051715 185.235978,74.8697889 L184.01807,75.8707124 C183.341983,75.0455145 182.675402,74.2226913 182.02902,73.4058047 L182.02902,73.4058047 Z M178.182809,68.3703166 L179.456562,67.4370712 C180.067298,68.2717678 180.691104,69.1100264 181.336298,69.951847 L180.081556,70.9088391 C179.43161,70.0575198 178.798298,69.2109499 178.182809,68.3703166 L178.182809,68.3703166 Z M174.550475,63.1697889 L175.863438,62.3006596 C176.433775,63.1567282 177.020747,64.0211082 177.630295,64.8902375 L176.338719,65.7902375 C175.722042,64.9139842 175.127941,64.0389182 174.550475,63.1697889 L174.550475,63.1697889 Z M171.174792,57.7959103 L172.535284,56.9956464 C173.054528,57.8790237 173.596348,58.7730871 174.161933,59.6718997 L172.825205,60.5101583 C172.25368,59.5970976 171.703542,58.6935356 171.174792,57.7959103 L171.174792,57.7959103 Z M168.12943,52.214248 L169.538638,51.512533 C169.994907,52.4220317 170.479694,53.3469657 170.988244,54.2766491 L170.988244,54.2790237 L169.603989,55.0341689 C169.083556,54.0843008 168.595205,53.1451187 168.12943,52.214248 L168.12943,52.214248 Z M165.527267,46.3974934 L166.995885,45.8251979 C167.363039,46.7643799 167.763463,47.7189974 168.20191,48.6937995 L166.762997,49.3397098 C166.317421,48.3459103 165.903927,47.3627968 165.527267,46.3974934 L165.527267,46.3974934 Z M163.565545,40.305277 L165.094761,39.9300792 C165.33359,40.8953826 165.618758,41.8856201 165.94789,42.9007916 L164.447191,43.3875989 C164.106177,42.3391821 163.812691,41.3121372 163.565545,40.305277 L163.565545,40.305277 Z M162.61023,33.9292876 L164.188163,33.8687335 C164.224997,34.844723 164.324806,35.8622691 164.48759,36.9094987 L164.48759,36.9118734 L162.925104,37.1493404 C162.758756,36.0474934 162.651817,34.9717678 162.61023,33.9292876 L162.61023,33.9292876 Z M162.714792,30.6688654 C162.839553,29.5420844 163.05343,28.4639842 163.367115,27.439314 L164.874944,27.8988127 C164.590963,28.821372 164.39491,29.8032982 164.284407,30.8398417 L162.714792,30.6688654 L162.714792,30.6688654 Z M164.683643,24.3866755 C164.974753,23.882058 165.299132,23.392876 165.653216,22.925066 C165.972843,22.5011873 166.315045,22.1010554 166.676258,21.7211082 L167.818121,22.8087071 C167.496118,23.1459103 167.191938,23.5021108 166.907958,23.8761214 C166.594272,24.2916887 166.310292,24.7226913 166.050076,25.1738786 L164.683643,24.3866755 L164.683643,24.3866755 Z M169.236834,19.598153 C170.132739,19.0080475 171.109441,18.4974934 172.155059,18.0664908 L172.757478,19.5233509 C171.792657,19.9199208 170.909823,20.3829815 170.101846,20.9149077 L169.236834,19.598153 L169.236834,19.598153 Z M194.088084,18.889314 L194.088084,18.885752 L194.38157,17.341029 C195.403424,17.53219 196.440725,17.7494723 197.497037,17.989314 L197.148893,19.5269129 C196.10684,19.2906332 195.088551,19.0745383 194.088084,18.889314 L194.088084,18.889314 Z M175.640056,18.5853562 L175.644809,18.5853562 L175.640056,18.5853562 L175.640056,18.5853562 Z M175.262208,17.0572559 C176.276933,16.8079156 177.340374,16.6096306 178.453719,16.4695251 L178.653337,18.0308707 C177.598213,18.1650396 176.594183,18.3514512 175.644809,18.5853562 L175.262208,17.0572559 L175.262208,17.0572559 Z M187.91775,17.996438 L188.067463,16.4255937 C189.102388,16.5253298 190.158699,16.653562 191.237587,16.8102902 L191.013017,18.3692612 C189.955517,18.2149077 188.922969,18.0914248 187.91775,17.996438 L187.91775,17.996438 Z M183.200587,17.758971 C182.70273,17.758971 182.208438,17.7672823 181.722463,17.7862797 L181.666618,16.2118734 C182.169228,16.1916887 182.681343,16.18219 183.200587,16.18219 C183.750725,16.18219 184.310368,16.1952507 184.87714,16.214248 L184.818919,17.7886544 C184.271157,17.7708443 183.731713,17.758971 183.200587,17.758971 L183.200587,17.758971 Z" id="Fill-3" fill="#FFFFFF"></path>
                <path d="M25.0045281,382.207916 L153.269772,349.666623 L191.980213,449.22942 L267.299166,449.22942 L302.743239,368.650923 L386.387924,436.362269 L387.866048,354.981135 L244.602126,285.070844 L150.641469,285.693008 L150.611764,288.569921" id="Fill-4" fill="#000000"></path>
                <path d="M38.8197556,334.323879 L98.1074831,313.141821 C98.1074831,313.141821 127.770952,279.97124 179.89382,285.06847 C210.168025,288.026121 160.065101,347.345383 160.065101,347.345383 L39.9533006,377.34934 L38.8197556,334.323879" id="Fill-5" fill="#000000"></path>
                <path d="M98.1074831,313.141821 L38.2529831,331.492084 L25.0045281,382.207916 L113.17864,359.941821 L98.1074831,313.141821" id="Fill-6" fill="#CEE7A2"></path>
                <path d="M266.246419,321.301187 C266.246419,342.630475 248.945006,359.920449 227.598952,359.920449 C206.254087,359.920449 188.94911,342.630475 188.94911,321.301187 C188.94911,299.970712 206.254087,282.678364 227.598952,282.678364 C248.945006,282.678364 266.246419,299.970712 266.246419,321.301187" id="Fill-7" fill="#619210"></path>
                <path d="M347.471924,335.270185 C334.713008,347.15066 326.724725,364.071372 326.724725,382.872823 C326.724725,384.688259 326.818593,386.479947 326.964742,388.259763 L386.387924,436.362269 L386.52932,354.326913 L347.471924,335.270185" id="Fill-8" fill="#619210"></path>
                <path d="M250.987525,230.611346 L252.685466,189.029683 L164.576705,154.948417 L163.072441,159.354617 L142.996576,238.086807 L146.460185,252.2719 C146.460185,252.2719 134.342899,275.918865 147.828994,298.752507 C158.033275,316.035356 161.688185,335.279683 161.688185,335.279683 L189.084565,337.834828 C212.910396,333.984301 243.204801,321.93285 252.414556,286.344855 C254.90384,276.712005 261.954632,253.911609 261.733626,253.645646 L262.451301,249.339182 L250.987525,230.611346" id="Fill-9" fill="#CEE7A2"></path>
                <path d="M257.823253,265.837203 C254.08398,276.815303 255.823508,287.33628 261.702733,289.336939 C267.581958,291.338786 275.381317,284.061609 279.122966,273.088259 C282.862239,262.110158 281.126275,251.587995 275.244674,249.592084 C269.360697,247.586675 261.564902,254.863852 257.823253,265.837203" id="Fill-10" fill="#CEE7A2"></path>
                <path d="M194.862792,294.013852 C195.317874,294.011478 195.783649,293.996042 196.260118,293.967546 L196.718764,301.98562 C196.105652,302.02124 195.499669,302.041425 194.906756,302.042612 L194.862792,294.013852 L194.862792,294.013852 Z M189.435084,301.618734 L190.73973,293.693272 C191.180553,293.765699 191.634447,293.829815 192.097846,293.878496 L191.257787,301.862137 C190.63398,301.796834 190.029185,301.716095 189.435084,301.618734 L189.435084,301.618734 Z M184.070351,300.231926 L186.781829,292.672164 C187.204829,292.821768 187.634958,292.965435 188.079346,293.091293 L185.832455,300.801847 C185.230037,300.627309 184.641876,300.436148 184.070351,300.231926 L184.070351,300.231926 Z M179.049008,297.897625 L183.075826,290.950528 C183.465556,291.173747 183.867169,291.392216 184.281851,291.6 L180.673281,298.776253 C180.111261,298.494855 179.569441,298.200396 179.049008,297.897625 L179.049008,297.897625 Z M174.539781,294.735752 L179.698955,288.57942 C180.042346,288.867942 180.403559,289.152902 180.782596,289.435488 L175.977506,295.872032 C175.476084,295.495646 174.994862,295.118074 174.539781,294.735752 L174.539781,294.735752 Z M170.643666,290.897098 L176.727261,285.653826 C177.014806,285.983905 177.328492,286.32942 177.668317,286.682058 L171.874643,292.247098 C171.427879,291.78285 171.020326,291.33285 170.643666,290.897098 L170.643666,290.897098 Z M167.320264,286.240369 L174.422149,282.472955 L174.426902,282.483641 C174.444725,282.518074 174.480371,282.579815 174.532652,282.667678 C174.636025,282.842216 174.811879,283.120053 175.050708,283.470317 L168.40034,287.979815 C167.730194,286.999077 167.383239,286.349604 167.320264,286.240369 L167.320264,286.240369 Z" id="Fill-11" fill="#A4C921"></path>
                <path d="M178.89573,300.189182 L194.436228,304.518206 C192.754921,308.418602 179.587264,311.605409 174.359174,309.728232 C167.594739,307.300132 167.671972,309.678364 167.142034,303.808179 C167.052919,302.870185 167.133716,301.946438 167.335711,301.052375 L173.029576,299.960026 L178.89573,300.189182" id="Fill-12" fill="#A4C921"></path>
                <path d="M188.871876,303.911478 C183.942025,302.458179 177.379584,300.300792 172.02198,300.309103 C169.16673,300.309103 166.728539,300.911082 164.990199,302.389314 L163.701,300.868338 C165.958584,298.962665 168.912455,298.316755 172.02198,298.316755 C177.873876,298.329815 184.538503,300.570317 189.438649,302.00343 C190.725472,302.381003 192.040812,302.536544 193.331199,302.536544 C196.169815,302.538918 198.896739,301.768338 200.89886,300.989446 C202.902169,300.210554 204.141463,299.451847 204.14384,299.45066 L204.14384,299.451847 L205.183517,301.149736 C205.103907,301.185356 199.718975,304.512269 193.331199,304.530079 C191.875652,304.530079 190.372576,304.353166 188.871876,303.911478" id="Fill-13" fill="#000000"></path>
                <path d="M147.828994,298.752507 C158.033275,316.035356 161.688185,335.279683 161.688185,335.279683 L181.926834,337.166359 L170.643666,290.897098 L205.461556,195.930475 L157.042315,183.006332 L142.996576,238.086807 L146.460185,252.2719 C146.460185,252.2719 134.342899,275.918865 147.828994,298.752507" id="Fill-14" fill="#619210"></path>
                <path d="M181.10341,317.041029 C173.43,316.312005 166.618037,321.937599 165.890857,329.607784 C165.685298,331.763984 166.000171,333.845383 166.70834,335.747493 L189.063177,337.833641 C190.035126,337.676913 191.01777,337.505937 192.006354,337.320712 C192.06814,337.308839 192.133492,337.296966 192.19409,337.285092 C192.983056,335.754617 193.503489,334.059103 193.676966,332.243668 C194.406522,324.57467 188.775632,317.767678 181.10341,317.041029" id="Fill-15" fill="#FFFFFF"></path>
                <path d="M176.75459,317.315303 C171.008444,318.590501 166.47664,323.433641 165.890857,329.607784 C165.685298,331.763984 166.000171,333.845383 166.70834,335.747493 L181.926834,337.166359 L176.75459,317.315303" id="Fill-16" fill="#CEE7A2"></path>
                <path d="M196.63559,252.463061 L205.046874,263.887599 L200.238219,283.708971 L174.074006,282.001583 L179.784506,251.156992" id="Fill-17" fill="#A4C921"></path>
                <path d="M194.029862,276.085092 C195.398671,291.151187 208.732677,302.256332 223.807399,300.892084 C238.885685,299.525462 250.000129,286.203562 248.632508,271.13628 C247.264888,256.070185 233.93207,244.966227 218.854972,246.33285 C203.78025,247.69591 192.666994,261.016623 194.029862,276.085092" id="Fill-18" fill="#CEE7A2"></path>
                <path d="M251.524593,215.20686 L197.984199,336.041953 C198.365612,335.950528 198.749402,335.854354 199.139132,335.758179 C220.791742,330.252507 244.463107,317.070712 252.414556,286.344855 C254.90384,276.712005 261.954632,253.911609 261.733626,253.645646 L262.451301,249.339182 L250.987525,230.611346 L259.01502,217.373747 L251.524593,215.20686" id="Fill-19" fill="#A4C921"></path>
                <path d="M212.708402,311.64934 C218.266812,307.36781 220.751343,299.732058 221.577143,296.203298 C221.858747,295.031398 221.95618,294.352243 221.95618,294.352243 L221.958556,294.352243 L224.584483,294.740501 C224.532202,294.85686 222.853272,307.04723 214.34218,313.748549 L212.708402,311.64934" id="Fill-20" fill="#CEE7A2"></path>
                <path d="M245.552688,265.845515 C245.552688,265.845515 198.055492,281.106332 195.423624,247.625858 L231.03048,248.64934 L245.552688,265.845515" id="Fill-21" fill="#A4C921"></path>
                <path d="M187.297508,257.034301 L236.812272,263.183509 C236.812272,263.183509 229.030736,259.350792 232.576331,247.618734 C209.426587,239.426121 190.474761,249.505409 190.474761,249.505409" id="Fill-22" fill="#619210"></path>
                <path d="M199.790267,258.243008 C199.790267,258.243008 208.651879,241.862533 232.576331,247.618734 L237.007138,247.618734 L232.133132,261.341953" id="Fill-23" fill="#CEE7A2"></path>
                <path d="M224.589236,317.553958 C224.141284,317.942216 223.689767,318.320976 223.239438,318.683113 L227.054756,323.40752 C227.595388,323.029947 228.133643,322.65 228.663581,322.254617 L224.589236,317.553958" id="Fill-24" fill="#619210"></path>
                <path d="M208.47959,326.82942 C207.921135,327.021768 207.360303,327.204617 206.803037,327.373219 L208.489096,332.894327 C209.102208,332.672296 209.716508,332.447889 210.329621,332.211609 L208.47959,326.82942" id="Fill-25" fill="#619210"></path>
                <path d="M199.306669,329.075858 C198.714944,329.169657 198.125596,329.25277 197.537435,329.322823 L198.354919,335.95409 C198.998924,335.796174 199.647683,335.626385 200.295253,335.455409 L199.306669,329.075858" id="Fill-26" fill="#619210"></path>
                <path d="M194.562177,329.614908 L194.558612,329.614908 C193.952629,329.658839 193.352587,329.692084 192.760862,329.719393 L193.084053,337.115303 C193.744694,336.985884 194.408899,336.846966 195.076669,336.705673 L194.562177,329.614908" id="Fill-27" fill="#A4C921"></path>
                <path d="M220.912938,320.45343 L220.909374,320.449868 C220.430528,320.793008 219.948118,321.1219 219.46452,321.44248 L222.646525,326.257124 C223.208545,325.922296 223.768188,325.585092 224.325455,325.233641 L220.912938,320.45343" id="Fill-28" fill="#619210"></path>
                <path d="M216.984742,322.971768 C216.473815,323.26504 215.964076,323.547625 215.450772,323.81715 L218.070758,328.7719 C218.652978,328.477441 219.23282,328.180607 219.80791,327.870712 L216.984742,322.971768" id="Fill-29" fill="#619210"></path>
                <path d="M212.831975,325.104222 L212.831975,325.101847 C212.293719,325.345251 211.75784,325.576781 211.219584,325.797625 L213.348843,330.976781 C213.947697,330.719129 214.544174,330.46029 215.137087,330.189578 L212.831975,325.104222" id="Fill-30" fill="#619210"></path>
                <path d="M203.959669,328.153298 C203.382202,328.294591 202.807112,328.425198 202.228458,328.546306 L203.490329,334.548285 C204.118888,334.357124 204.749823,334.165963 205.380758,333.962929 L203.959669,328.153298" id="Fill-31" fill="#619210"></path>
                <path d="M175.30736,328.196042 C174.671671,328.057124 174.082323,327.92058 173.552385,327.788786 L171.46709,336.191557 L173.526244,336.383905 L175.30736,328.196042" id="Fill-32" fill="#A4C921"></path>
                <path d="M167.960705,335.863852 L170.732781,327.008707 C170.496329,326.935092 169.020581,326.476781 169.020581,326.476781 L166.233059,335.714248 L167.960705,335.863852" id="Fill-33" fill="#A4C921"></path>
                <path d="M231.144548,310.757652 C230.766699,311.225462 230.384098,311.680211 229.999121,312.124274 L235.231963,316.643272 C235.709621,316.177836 236.18609,315.710026 236.654242,315.224406 L231.144548,310.757652" id="Fill-34" fill="#619210"></path>
                <path d="M189.723817,337.725594 L189.749958,329.77876 C189.138034,329.775198 188.532051,329.765699 187.934385,329.749077 L187.694368,337.705409 L189.084565,337.834828 C189.296065,337.801583 189.511129,337.760026 189.723817,337.725594" id="Fill-35" fill="#A4C921"></path>
                <path d="M249.91339,260.019261 L249.91339,260.015699 C249.825463,260.658047 249.739913,261.292084 249.648421,261.922559 L259.035219,263.276121 C259.234837,262.600528 259.428514,261.943931 259.612685,261.313456 L249.91339,260.019261" id="Fill-36" fill="#619210"></path>
                <path d="M180.081556,329.058047 C179.45775,328.96781 178.858896,328.870449 178.28143,328.7719 L176.920938,336.699736 L178.948011,336.88971 L180.081556,329.058047" id="Fill-37" fill="#A4C921"></path>
                <path d="M184.912787,329.588786 C184.294921,329.541293 183.691315,329.490237 183.100778,329.428496 L182.311812,337.203166 L184.328191,337.390765 L184.912787,329.588786" id="Fill-38" fill="#A4C921"></path>
                <path d="M245.955489,279.965303 C245.787952,280.577968 245.615663,281.184697 245.444562,281.783113 L253.041927,283.987995 C253.210652,283.368206 253.388882,282.723483 253.57543,282.047889 L245.955489,279.965303" id="Fill-39" fill="#619210"></path>
                <path d="M244.52727,284.785884 C244.333593,285.385488 244.136351,285.98153 243.940298,286.566887 L251.614896,289.16715 C251.805008,288.529551 251.985615,287.878892 252.165034,287.225858 L244.52727,284.785884" id="Fill-40" fill="#619210"></path>
                <path d="M242.893492,289.506728 C242.672486,290.092084 242.45148,290.676253 242.224534,291.247361 L249.863486,294.260818 C250.104691,293.633905 250.344708,293.008179 250.571654,292.367018 L242.893492,289.506728" id="Fill-41" fill="#619210"></path>
                <path d="M247.193596,275.063984 C247.049823,275.687335 246.902486,276.302375 246.752772,276.911478 L254.487969,278.823087 C254.668576,278.190237 254.853935,277.544327 255.04286,276.891293 L247.193596,275.063984" id="Fill-42" fill="#619210"></path>
                <path d="M249.161258,265.082058 C249.055508,265.716095 248.949758,266.343008 248.841632,266.967546 L257.498874,268.486148 C257.693739,267.829551 257.886228,267.178892 258.073963,266.537731 L249.161258,265.082058" id="Fill-43" fill="#619210"></path>
                <path d="M248.257037,270.099736 C248.13584,270.729024 248.00989,271.352375 247.878,271.966227 L255.980351,273.664116 C256.169275,273.018206 256.359388,272.372296 256.547124,271.725198 L248.257037,270.099736" id="Fill-44" fill="#619210"></path>
                <path d="M228.001753,314.311346 C227.588258,314.744723 227.173576,315.162665 226.75414,315.567546 L231.265744,320.206464 C231.776671,319.783773 232.28641,319.358707 232.790208,318.918206 L228.001753,314.311346" id="Fill-45" fill="#619210"></path>
                <path d="M238.94866,298.564908 L238.951037,298.564908" id="Fill-46" fill="#619210"></path>
                <path d="M236.615031,302.847625 L236.615031,302.845251 C236.301346,303.374802 235.98766,303.894855 235.67041,304.398285 L242.234039,308.498153 C242.626146,307.953166 243.011124,307.397493 243.387784,306.833509 L236.615031,302.847625" id="Fill-47" fill="#619210"></path>
                <path d="M234.015244,306.923747 C233.669478,307.424802 233.318958,307.913984 232.969626,308.391293 L238.90232,312.733377 C239.340767,312.225198 239.779213,311.715831 240.20459,311.18628 L234.015244,306.923747" id="Fill-48" fill="#619210"></path>
                <path d="M241.039896,294.106464 C240.790374,294.67876 240.538475,295.241557 240.285388,295.793668 L247.728287,299.212005 C248.018208,298.610026 248.298624,297.991425 248.574287,297.372823 L241.039896,294.106464" id="Fill-49" fill="#619210"></path>
                <path d="M238.951037,298.564908 C238.668244,299.118206 238.387829,299.657256 238.10266,300.190369 L245.192663,303.979156 C245.532489,303.403298 245.856868,302.807256 246.181247,302.212401 L238.951037,298.564908" id="Fill-50" fill="#619210"></path>
                <path d="M242.891115,289.504354 L242.893492,289.506728 L242.893492,289.504354 L242.891115,289.504354" id="Fill-51" fill="#619210"></path>
                <path d="M269.473576,231.399736 L257.823253,265.837203 L240.643037,240.03285 L253.268874,211.405013 L273.355433,218.612137" id="Fill-52" fill="#FFFFFF"></path>
                <path d="M152.866972,278.67467 C152.484371,282.727045 155.456065,286.322296 159.512587,286.708179 C163.564357,287.090501 167.162233,284.117414 167.547211,280.068602 C167.934565,276.01504 164.959306,272.422164 160.90516,272.03628 C156.851014,271.651583 153.253138,274.623483 152.866972,278.67467" id="Fill-53" fill="#A4C921"></path>
                <path d="M181.362438,261.769393 C181.362438,261.769393 153.712972,264.88496 146.17977,248.946174 L182.043278,258.163456" id="Fill-54" fill="#A4C921"></path>
                <path d="M175.717289,256.661478 L145.294559,248.060422 L164.743053,249.543404 L176.090385,255.914644" id="Fill-55" fill="#000000"></path>
                <path d="M163.431278,163.295383 L167.669596,164.53971 L143.342343,239.50686 L143.82,179.897889" id="Fill-56" fill="#619210"></path>
                <path d="M143.457598,225.169789 L143.440963,227.235752 L147.032899,228.133377 L147.674528,226.15409 L143.457598,225.169789" id="Fill-57" fill="#CEE7A2"></path>
                <path d="M143.413635,230.708707 L143.397,232.819789 L145.327829,233.392084 L145.967081,231.421108 L143.413635,230.708707" id="Fill-58" fill="#CEE7A2"></path>
                <path d="M143.501562,219.737731 L143.483739,221.765699 L148.745098,222.860422 L149.389104,220.877573 L143.501562,219.737731" id="Fill-59" fill="#CEE7A2"></path>
                <path d="M143.367295,236.394855 L143.349472,238.577177 L143.615629,238.669789 L144.257258,236.688127 L143.367295,236.394855" id="Fill-60" fill="#CEE7A2"></path>
                <path d="M151.702534,212.16847 C151.795213,211.491689 151.884329,210.806596 151.971067,210.119129 L143.587112,209.068338 L143.570478,211.055937 L151.702534,212.16847" id="Fill-61" fill="#CEE7A2"></path>
                <path d="M152.575862,204.647889 L143.629888,203.789446 L143.612065,205.766359 L152.367927,206.698417 C152.438031,206.020449 152.508135,205.335356 152.575862,204.647889" id="Fill-62" fill="#CEE7A2"></path>
                <path d="M143.544337,214.379288 L143.527702,216.381135 L150.463239,217.564908 L151.110809,215.570185 L143.544337,214.379288" id="Fill-63" fill="#CEE7A2"></path>
                <path d="M142.996576,238.086807 L143.342343,239.50686 C166.935287,239.608971 186.974317,257.559103 186.974317,257.559103 L205.437792,208.879551 L154.701556,192.183245 L142.996576,238.086807" id="Fill-64" fill="#FFFFFF"></path>
                <path id="Fill-65" fill="#001600"></path>
                <path d="M173.238699,182.555145 C173.238699,182.555145 225.710899,153.695778 257.365795,195.467414 M174.600379,168.232322 C174.600379,168.232322 235.530202,154.276385 263.769017,183.737731" id="Stroke-66" stroke="#A0C938" stroke-width="1.293"></path>
                <path d="M155.450124,186.529156 L194.61327,202.915567 L170.884871,178.652375 C170.884871,178.651187 216.501143,176.307388 221.450006,187.44934 C226.400056,198.594855 158.594107,167.479551 158.594107,167.479551" id="Fill-67" fill="#CEE7A2"></path>
                <path d="M179.784506,251.156992 C166.798643,267.936412 160.07223,278.059631 155.077028,284.410686 C155.05564,284.437995 155.039006,284.459367 155.018806,284.485488 L168.642733,295.692744 C171.462337,293.490237 171.707107,294.277441 171.707107,294.277441 L188.667506,253.923483 L179.784506,251.156992" id="Fill-68" fill="#FFFFFF"></path>
                <path d="M170.324039,284.105541 C170.324039,284.105541 188.118556,267.40686 195.660076,282.780475 L196.17932,283.846702 L168.642733,295.692744" id="Fill-69" fill="#FFFFFF"></path>
                <path d="M176.366048,287.506069 C176.723697,289.16715 180.146907,289.837995 184.003812,289.002111 C187.864281,288.166227 190.699331,286.140633 190.338118,284.475989 C189.978093,282.810158 186.55607,282.141689 182.696789,282.977573 C178.839885,283.814644 176.004834,285.841425 176.366048,287.506069" id="Fill-70" fill="#000000"></path>
                <path d="M263.540882,248.944987 L264.201522,246.987071 L243.693152,233.11781 L242.875669,234.970053 L263.540882,248.944987" id="Fill-71" fill="#A4C921"></path>
                <path d="M245.152264,229.809894 L265.382596,243.491557 L266.044424,241.536016 L245.970935,227.957652 L245.152264,229.809894" id="Fill-72" fill="#A4C921"></path>
                <path d="M279.214458,51.7618734 C279.406947,36.6827177 267.330059,24.307124 252.244643,24.1135884 C237.158039,23.9212401 224.769843,35.9905013 224.576166,51.066095 C224.444275,61.2914248 229.968228,70.2653034 238.238115,75.0490765 L232.869817,91.3868074 L251.541228,95.2646438 L257.522638,78.1183377 C269.770626,75.5525066 279.051674,64.789314 279.214458,51.7618734" id="Fill-73" fill="#FFFFFF"></path>
                <path d="M273.87943,51.3225594 C273.585944,62.2496042 264.486691,70.866095 253.551666,70.5740106 C242.617829,70.2819261 233.99148,61.1869393 234.284966,50.2610818 C234.578452,39.3340369 243.677705,30.7151715 254.613919,31.0072559 C265.545379,31.3005277 274.172916,40.3943272 273.87943,51.3225594" id="Fill-74" fill="#FFFFFF"></path>
                <path d="M245.877067,40.8526385 L247.383708,40.294591 L252.715171,54.7159631 L265.544191,47.0350923 L266.369992,48.4088391 L251.877489,57.0894459 L245.877067,40.8526385" id="Fill-75" fill="#619210"></path>
                <path d="M352.736848,32.1850923 C352.736848,32.1850923 370.063213,38.4886544 371.719567,29.2108179 C373.374733,19.9294195 351.69836,30.6451187 351.69836,30.6451187 C351.69836,30.6451187 364.036652,22.3064644 360.405506,14.4154354 C356.769607,6.52084433 347.331716,23.0034301 349.649899,30.2200528" id="Fill-76" fill="#FFFFFF"></path>
                <path d="M358.265553,42.7796834 C356.858722,44.8432718 353.913169,45.5022427 350.569567,44.8290237 L357.347073,34.8708443 C359.203045,37.7323219 359.670008,40.712533 358.265553,42.7796834" id="Fill-77" fill="#CEE7A2"></path>
                <path d="M352.391081,29.9220317 C352.625157,30.0823219 352.848539,30.2485488 353.069545,30.4135884 L344.847185,42.4923483 C344.61311,42.3463061 344.374281,42.2026385 344.140205,42.0411609 C343.312028,41.4795515 342.558708,40.8680739 341.868362,40.2316623 L350.208354,28.6349604 C350.942663,29.005409 351.672219,29.4328496 352.391081,29.9220317" id="Fill-78" fill="#CEE7A2"></path>
                <path d="M338.125525,35.089314 C337.220115,32.8915567 337.189222,30.7674142 338.265733,29.1846966 C339.389772,27.5283641 341.504772,26.7791557 344.020197,26.8907652 L338.125525,35.089314" id="Fill-79" fill="#CEE7A2"></path>
                <path d="M350.208354,28.6349604 L341.868362,40.2316623 C340.131211,38.6275726 338.847952,36.8370712 338.125525,35.089314 L344.020197,26.8907652 C345.937955,26.9738786 348.085037,27.5592348 350.208354,28.6349604" id="Fill-80" fill="#000000"></path>
                <path d="M357.347073,34.8708443 L350.569567,44.8290237 C348.720725,44.4585752 346.751874,43.6737467 344.847185,42.4923483 L353.069545,30.4135884 C354.867295,31.748153 356.321654,33.2905013 357.347073,34.8708443" id="Fill-81" fill="#000000"></path>
                <path d="M319.209346,139.653166 L299.065753,120.045515 L314.802303,122.917678 L315.704149,115.327045 L289.282096,112.19248 L287.317997,134.382586 L293.222174,135.419129 L294.686039,125.952507 L311.791399,147.097757 L319.209346,139.653166" id="Fill-82" fill="#619210"></path>
                <path d="M121.081374,123.677573 L165.41914,103.447757 L151.873635,125.748285 L162.925104,131.537731 L183.100778,93.1238786 L150.40264,77.2005277 L145.381298,85.5878628 L161.676303,96.5837731 L118.487528,107.618865 L121.081374,123.677573" id="Fill-83" fill="#000000"></path>
                <path d="M209.943455,138.360158 C253.114407,139.516623 287.173037,175.42876 286.016916,218.569393 C285.873143,223.9219 285.189927,229.133113 284.029053,234.155541 L133.088157,193.558179 C143.120149,160.811478 174.014596,137.39723 209.943455,138.360158" id="Fill-84" fill="#CEE7A2"></path>
                <path d="M227.198528,140.769261 L203.79332,212.574538 L284.029053,234.155541 C285.189927,229.133113 285.873143,223.9219 286.016916,218.569393 C287.013817,181.372559 261.825118,149.575726 227.198528,140.769261" id="Fill-85" fill="#001600"></path>
                <path d="M227.198528,140.769261 L203.79332,212.574538 L284.029053,234.155541 C285.189927,229.133113 285.873143,223.9219 286.016916,218.569393 C287.013817,181.372559 261.825118,149.575726 227.198528,140.769261" id="Fill-86" fill="#619210"></path>
                <path d="M222.329275,155.255937 C195.162219,155.255937 173.122256,177.172955 172.938084,204.276253 L265.222188,229.097493 C269.354756,221.880871 271.729972,213.529156 271.729972,204.62058 C271.729972,177.356992 249.611587,155.255937 222.329275,155.255937" id="Fill-87" fill="#A4C921"></path>
                <path d="M222.474236,155.259499 L203.79332,212.574538 L265.222188,229.097493 C269.354756,221.880871 271.729972,213.529156 271.729972,204.62058 C271.729972,177.405673 249.691197,155.33905 222.474236,155.259499" id="Fill-88" fill="#000000"></path>
                <path d="M182.393798,163.786939 C182.332011,166.109367 180.39643,167.942612 178.073494,167.880871 C175.748183,167.820317 173.915975,165.88496 173.978949,163.56372 C174.040736,161.241293 175.975129,159.410422 178.298065,159.470976 C180.622188,159.533905 182.456772,161.465699 182.393798,163.786939" id="Fill-89" fill="#000000"></path>
                <path d="M172.264374,169.536016 C172.201399,171.857256 170.265817,173.690501 167.942882,173.626385 C165.621135,173.568206 163.787739,171.63285 163.848337,169.310422 C163.911312,166.989182 165.844517,165.158311 168.16864,165.218865 C170.492764,165.281794 172.324972,167.215963 172.264374,169.536016" id="Fill-90" fill="#000000"></path>
                <path d="M196.856596,198.563984 L193.313376,175.57124 L171.256778,171.001187 L171.659579,169.051583 L195.074292,173.899472 L198.622264,196.946834 L240.70007,207.224406 L240.223601,209.162137 L196.856596,198.563984" id="Fill-91" fill="#000000"></path>
                <path d="M202.386489,191.489842 L198.965654,170.620053 L179.357941,166.236412 L179.791635,164.295119 L200.715876,168.969657 L204.147404,189.914248 L248.849949,202.473879 L248.308129,204.391425 L202.386489,191.489842" id="Fill-92" fill="#000000"></path>
                <path d="M82.2628062,178.606069 L73.6031882,209.098021 L98.6944551,192.014644 L101.508118,197.526253 C101.508118,197.526253 87.648927,207.288522 85.7584972,212.15066 C83.8645028,217.008047 69.3672472,234.826385 58.5058904,232.031398 L54.1927163,341.701979 L24.8167921,349.03971 L47.7788006,210.750792 L55.1991236,180.417942 L62.5671657,182.568206 L66.2185112,151.124011 L90.4305084,141.039974 L93.2964522,146.964776 L75.3498455,153.511741 L71.9789157,175.548681 L85.8333539,154.224142 L105.329376,158.844063 L102.718896,164.635884 L86.7934213,161.655673 L82.2628062,178.606069" id="Fill-93" fill="#619210"></path>
                <path d="M62.8867921,372.246174 L60.2216545,191.144327 L74.5133511,189.376385 L77.7832837,184.478628 L54.8105815,181.772691 C54.8105815,181.772691 16.3662978,311.813193 25.0045281,382.207916" id="Fill-94" fill="#CEE7A2"></path>
                <path d="M381.568576,266.781135 L379.398919,223.877968 L387.438295,221.543668 C387.438295,221.543668 388.811857,257.155409 399.006632,275.890369" id="Fill-95" fill="#CEE7A2"></path>
                <path d="M133.505216,190.784565 L102.241239,199.69314 L224.767466,217.680079" id="Fill-96" fill="#000000"></path>
                <path d="M245.026315,85.4323219 L253.07282,56.1193931 L251.521028,55.6907652 L243.624236,84.4598945 L245.026315,85.4323219" id="Fill-97" fill="#619210"></path>
                <path d="M245.147511,173.629947 C245.147511,176.195778 243.064593,178.278364 240.494511,178.278364 C237.926806,178.278364 235.842699,176.195778 235.842699,173.629947 C235.842699,171.061741 237.926806,168.980343 240.494511,168.980343 C243.064593,168.980343 245.147511,171.061741 245.147511,173.629947" id="Fill-98" fill="#A4C921"></path>
                <path d="M258.659747,177.392612 C258.659747,179.958443 256.576829,182.041029 254.007935,182.041029 C251.437854,182.041029 249.354935,179.958443 249.354935,177.392612 C249.354935,174.825594 251.437854,172.744195 254.007935,172.744195 C256.576829,172.744195 258.659747,174.825594 258.659747,177.392612" id="Fill-99" fill="#A4C921"></path>
                <path d="M248.911736,186.247757 C248.911736,188.814776 246.830006,190.896174 244.259924,190.896174 C241.692219,190.896174 239.608112,188.814776 239.608112,186.247757 C239.608112,183.679551 241.692219,181.59934 244.259924,181.59934 C246.830006,181.59934 248.911736,183.679551 248.911736,186.247757" id="Fill-100" fill="#A4C921"></path>
                <path d="M221.472581,106.350792 L252.206621,115.758047 L258.559938,95.0248021 L227.829463,85.6187335 L221.472581,106.350792" id="Fill-101" fill="#619210"></path>
                <path d="M225.731098,92.4565963 L256.560194,101.551583 L257.03191,100.015172 L226.202815,90.921372 L225.731098,92.4565963" id="Fill-102" fill="#000000"></path>
                <path d="M223.472326,99.8251979 L254.30261,108.918997 L254.773138,107.386148 L223.942854,98.2887863 L223.472326,99.8251979" id="Fill-103" fill="#000000"></path>
                <path d="M294.349778,79.6903694 L294.352154,79.6903694 L294.349778,79.6903694 L294.349778,79.6903694 Z M280.984879,70.7722955 C281.227272,70.408971 281.461348,70.0432718 281.693048,69.6704485 L295.381138,78.0862797 C295.044876,78.6277045 294.705051,79.1620053 294.349778,79.6903694 L280.984879,70.7722955 L280.984879,70.7722955 Z M284.083711,65.0398417 C284.253624,64.6408971 284.415219,64.2383905 284.572062,63.8323219 L299.58975,69.5422164 C299.362803,70.1394459 299.126351,70.7295515 298.878017,71.3137203 L284.083711,65.0398417 L284.083711,65.0398417 Z M286.052562,58.8360158 C286.142865,58.4145119 286.228416,57.9870712 286.304461,57.5560686 L302.130126,60.3593668 C302.018435,60.987467 301.892486,61.6131926 301.759407,62.2317942 L286.052562,58.8360158 L286.052562,58.8360158 Z M200.876284,51.8437995 L216.946719,51.7096306 C216.949096,52.1513193 216.960978,52.5858839 216.983553,53.0216359 L200.927376,53.744723 C200.896483,53.1154354 200.879848,52.4790237 200.876284,51.8437995 L200.876284,51.8437995 Z M286.82727,52.3591029 C286.834399,52.1952507 286.835587,52.0278364 286.839152,51.9043536 L286.839152,51.4056728 L286.839152,51.0459103 L302.911963,50.8868074 C302.911963,51.0601583 302.913152,51.2311346 302.913152,51.4056728 C302.913152,51.6265172 302.911963,51.8307388 302.908399,52.0622691 C302.904834,52.3056728 302.90127,52.5443272 302.895329,52.7841689 L302.895329,52.7889182 L286.82727,52.3591029 L286.82727,52.3591029 Z M201.375329,44.2555409 C201.464444,43.6262533 201.564253,42.998153 201.674756,42.3736148 L217.49448,45.2030343 C217.422,45.6304749 217.350708,46.0614776 217.29011,46.4948549 L201.375329,44.2555409 L201.375329,44.2555409 Z M286.171382,44.5594987 L301.931697,41.428496 C302.05527,42.051847 302.168149,42.6751979 302.269146,43.3056728 L286.399517,45.8418206 C286.331789,45.4131926 286.254556,44.9845646 286.171382,44.5594987 L286.171382,44.5594987 Z M203.58182,34.9919525 C203.787379,34.3887863 204.003632,33.7927441 204.228202,33.1967018 L219.242326,38.937467 C219.084295,39.3399736 218.938146,39.7496042 218.797938,40.1627968 L203.58182,34.9919525 L203.58182,34.9919525 Z M284.299963,38.3200528 L299.20002,32.2919525 C299.438848,32.882058 299.665795,33.4745383 299.883236,34.0788918 L284.768115,39.5406332 C284.620778,39.1310026 284.465124,38.7225594 284.299963,38.3200528 L284.299963,38.3200528 Z M207.480312,26.3065963 C207.793997,25.7568602 208.116,25.2094987 208.449885,24.6716359 L208.452261,24.6716359 L222.126093,33.1064644 C221.897958,33.4733509 221.675764,33.8497361 221.464264,34.2273087 L207.480312,26.3065963 L207.480312,26.3065963 Z M281.298565,32.5329815 L294.808424,23.839314 C295.153003,24.3712401 295.488076,24.9126649 295.812455,25.4612137 L295.813643,25.4612137 L281.985346,33.6467018 C281.76434,33.2691293 281.530264,32.9010554 281.298565,32.5329815 L281.298565,32.5329815 Z M212.92109,18.5093668 C213.332208,18.0237467 213.750455,17.5488127 214.178208,17.0798153 L226.057854,27.9 C225.761992,28.2217678 225.475635,28.548285 225.191654,28.8807388 L212.92109,18.5093668 L212.92109,18.5093668 Z M277.265806,27.4025066 L288.933952,16.3567282 C289.372399,16.8162269 289.797775,17.2875989 290.219587,17.7649077 L278.14864,28.3654354 C277.862284,28.0401055 277.566421,27.7159631 277.265806,27.4025066 L277.265806,27.4025066 Z M219.710478,11.8531662 C220.20477,11.4494723 220.706191,11.0588391 221.213553,10.6777045 L230.88552,23.5044855 C230.537376,23.7668865 230.193986,24.0364116 229.85416,24.3094987 L219.710478,11.8531662 L219.710478,11.8531662 Z M272.356154,23.1019789 L281.778598,10.0911609 C282.295466,10.4639842 282.802829,10.8439314 283.300685,11.2345646 L273.399396,23.8856201 C273.056006,23.6184697 272.709051,23.3572559 272.356154,23.1019789 L272.356154,23.1019789 Z M227.625093,6.56002639 C228.184736,6.25844327 228.75032,5.96398417 229.321846,5.68258575 L236.441553,20.0825858 C236.048258,20.2737467 235.662093,20.4744063 235.281868,20.68219 L227.625093,6.56002639 L227.625093,6.56002639 Z M266.744275,19.7916887 L273.585944,5.25870712 C274.158657,5.52823219 274.731371,5.80844327 275.294579,6.09934037 L267.912278,20.3675462 C267.529677,20.1656992 267.139947,19.9745383 266.744275,19.7916887 L266.744275,19.7916887 Z M236.399966,2.82704485 C237.007138,2.63707124 237.613121,2.45184697 238.22861,2.28205805 L242.528713,17.758971 C242.10809,17.8741425 241.693407,17.9976253 241.278725,18.1282322 L236.399966,2.82704485 L236.399966,2.82704485 Z M260.619093,17.5856201 L264.616205,2.03271768 C265.235258,2.18825858 265.848371,2.35804749 266.45673,2.5408971 L261.877399,17.9335092 C261.46034,17.8100264 261.039716,17.6948549 260.619093,17.5856201 L260.619093,17.5856201 Z M214.17702,17.0798153 L214.180584,17.0798153 L214.17702,17.0798153 L214.17702,17.0798153 Z M245.711907,0.801451187 C246.339278,0.725461741 246.970213,0.658970976 247.60709,0.606728232 L248.942629,16.6131926 C248.505371,16.65 248.072865,16.6951187 247.642736,16.7449868 L245.711907,0.801451187 L245.711907,0.801451187 Z M254.180225,16.5633245 L255.213961,0.537862797 C255.850837,0.577044855 256.480584,0.632849604 257.11152,0.695778364 L255.483683,16.671372 C255.051177,16.628628 254.616295,16.5930079 254.180225,16.5633245 L254.180225,16.5633245 Z M283.300685,11.2345646 L283.301874,11.2345646 L283.301874,11.2369393 L283.300685,11.2345646 L283.300685,11.2345646 Z" id="Fill-104" fill="#FFFFFF"></path>
                <path d="M154.542337,28.4141161 C154.542337,28.4141161 168.687885,14.4356201 160.391857,8.54050132 C152.099393,2.64300792 152.558039,28.7168865 152.558039,28.7168865 C152.558039,28.7168865 150.112719,12.8434037 140.731862,12.7448549 C131.351006,12.6451187 143.086879,29.4470976 151.197548,30.5156992" id="Fill-105" fill="#FFFFFF"></path>
                <path d="M167.433143,27.9130607 C168.797199,30.2366755 168.084278,33.4092348 165.882539,36.3609499 L159.290393,25.1572559 C162.939362,24.6704485 166.064334,25.5894459 167.433143,27.9130607" id="Fill-106" fill="#CEE7A2"></path>
                <path d="M152.171874,27.705277 C152.436843,27.5521108 152.703,27.4131926 152.966781,27.2730871 L160.963382,40.8573879 C160.715048,41.0188654 160.459584,41.183905 160.196992,41.3406332 C159.267817,41.8868074 158.322008,42.3391821 157.384517,42.7167546 L149.910725,29.2405013 C150.611764,28.6943272 151.366272,28.1802111 152.171874,27.705277" id="Fill-107" fill="#CEE7A2"></path>
                <path d="M150.63434,43.9943272 C148.072576,43.862533 145.986093,42.9150396 144.93691,41.1340369 C143.842576,39.2758575 144.083781,36.8667546 145.352781,34.4659631 L150.63434,43.9943272" id="Fill-108" fill="#CEE7A2"></path>
                <path d="M149.910725,29.2405013 L157.384517,42.7167546 C155.015242,43.6725594 152.674483,44.0952507 150.63434,43.9943272 L145.352781,34.4659631 C146.319978,32.6362797 147.880087,30.8149077 149.910725,29.2405013" id="Fill-109" fill="#619210"></path>
                <path d="M159.290393,25.1572559 L165.882539,36.3609499 C164.668197,37.9887863 162.995208,39.5453826 160.963382,40.8573879 L152.966781,27.2730871 C155.098416,26.1344327 157.274014,25.430343 159.290393,25.1572559" id="Fill-110" fill="#619210"></path>
                <path d="M198.018657,258.37124 L202.491051,254.545646 L227.775994,256.719657 L242.163935,263.850792 L198.018657,258.37124" id="Fill-111" fill="#000000"></path>
                <path d="M230.360334,258.906728 C230.360334,258.588522 230.333006,258.275066 230.291419,257.967546 L227.775994,256.719657 L216.465497,255.750792 C216.004475,256.707784 215.739506,257.775198 215.739506,258.906728 C215.739506,259.48971 215.814362,260.052507 215.945065,260.595119 L229.528593,262.282322 C230.058531,261.2719 230.360334,260.126121 230.360334,258.906728" id="Fill-112" fill="#619210"></path>
                <path d="M225.929528,258.46504 C225.929528,259.809103 224.838758,260.899077 223.492525,260.899077 C222.14748,260.899077 221.056711,259.809103 221.056711,258.46504 C221.056711,257.118602 222.14748,256.031003 223.492525,256.031003 C224.838758,256.031003 225.929528,257.118602 225.929528,258.46504" id="Fill-113" fill="#000000"></path>
                <path d="M384.407191,277.898153 L336.115087,248.534169 L306.897194,258.048285 L303.287435,253.126781 L336.184003,240.923351 L323.640152,228.521636 L299.675301,233.441953 L297.704073,227.86504 L325.938135,218.023219 L343.666112,233.441953 L327.908174,201.293668 L302.301228,189.154354 L305.913362,185.21715 L336.443031,193.091557 L354.173385,223.273615 L345.30702,191.778364 L327.577854,185.873747 L328.236118,181.281135 L352.202157,187.842348 L362.601303,223.437467 L394.289469,263.555145" id="Fill-114" fill="#FFFFFF"></path>
                <path d="M62.1429775,185.124538 L63.8872584,168.672823 L76.9586713,165.442084 L78.977427,157.701847 L58.1826994,162.619789 L54.1368708,185.517546" id="Fill-115" fill="#CEE7A2"></path>
                <path d="M382.771037,272.411478 L363.120548,417.839842 L394.289469,442.418865 C394.289469,442.418865 433.479944,425.184697 418.418292,357.887731 C403.354264,290.591953 394.289469,263.555145 394.289469,263.555145 L382.771037,272.411478" id="Fill-116" fill="#FFFFFF"></path>
                <path id="Fill-117" fill="#CEE7A2"></path>
            </g>
        </g>
    </g>
</svg>