<?xml version="1.0" encoding="UTF-8" standalone="no"?>
<svg width="248px" height="450px" viewBox="0 0 248 450" version="1.1" xmlns="http://www.w3.org/2000/svg" xmlns:xlink="http://www.w3.org/1999/xlink">
    <defs></defs>
    <g id="helfigur" stroke="none" stroke-width="1" fill="none" fill-rule="evenodd">
        <g id="dag-henning">
            <g id="Imported-Layers">
                <path d="M235.026594,449.319431 L238.07158,372.461881 L190.356767,374.514728 L191.734977,449.319431 L235.026594,449.319431" id="Fill-1" fill="#CEE7A2"></path>
                <path d="M47.0073242,449.319431 L191.710466,449.319431 L190.356767,374.514728 L241.923215,373.277228 C240.931616,285.832426 216.0659,256.443193 156.162228,234.830941 L158.140968,212.432302 L66.8626849,228.030817 L70.5772785,245.853713 C26.1046575,268.739109 3.22659361,274.350743 0.547050228,377.407426 L44.2085662,378.031188 L47.0073242,449.319431" id="Fill-2" fill="#FFFFFF"></path>
                <path d="M14.1274886,364.665965 L94.3466667,364.665965 L94.3466667,449.319431 L14.1274886,449.319431 L14.1274886,364.665965 Z" id="Fill-3" fill="#619210"></path>
                <path d="M47.0073242,449.319431 L114.716767,449.319431 L82.9666849,225.278465 L66.8626849,228.030817 L70.5772785,245.853713 C69.8207671,246.24245 69.0720548,246.625619 68.3289132,247.005446 C68.0993973,247.122401 67.8732237,247.237129 67.6448219,247.35297 C67.1189406,247.621411 66.5964018,247.888738 66.0772055,248.151609 C65.8131507,248.285272 65.5535525,248.416708 65.2928402,248.550371 C64.7613881,248.819926 64.2332785,249.087252 63.7107397,249.352351 C63.1781735,249.62302 62.6522922,249.888119 62.1286393,250.154332 C61.7787945,250.331436 61.4322922,250.507426 61.0846758,250.683416 C60.6958356,250.880569 60.3092237,251.077723 59.9226119,251.273762 C59.6128767,251.431931 59.3031416,251.588985 58.9956347,251.747153 C58.5845114,251.955446 58.1789589,252.164851 57.7734064,252.37203 C57.49821,252.512376 57.2218995,252.653837 56.9500457,252.793069 C56.44979,253.051485 55.955105,253.307673 55.4593059,253.563861 C55.2932968,253.651856 55.1239452,253.738738 54.9568219,253.825619 C54.3061553,254.164233 53.6621735,254.501733 53.0237626,254.839233 C52.8354703,254.938366 52.6516347,255.0375 52.4644566,255.136634 C52.0109954,255.377228 51.5575342,255.618936 51.1096438,255.860644 C50.8723288,255.987624 50.6383562,256.115718 50.4021553,256.243812 C50.0122009,256.455446 49.6211324,256.669307 49.2345205,256.880941 C48.9782648,257.022401 48.7242374,257.163861 48.47021,257.305322 C48.1081096,257.506931 47.7482374,257.70854 47.3894795,257.911262 C47.1309954,258.057178 46.8725114,258.204208 46.6173699,258.350124 C46.2608402,258.552847 45.9087671,258.756683 45.5589224,258.96052 C45.3115799,259.104208 45.0642374,259.247896 44.8202374,259.392698 C44.4547945,259.606559 44.0949224,259.823762 43.7361644,260.039851 C43.5088767,260.175743 43.281589,260.311634 43.0565297,260.448639 C42.6565479,260.692574 42.2632511,260.938738 41.8688402,261.184901 C41.6905753,261.296287 41.5100822,261.406559 41.3340457,261.519059 C40.7691689,261.875495 40.209863,262.2375 39.657242,262.601733 C39.5547397,262.668564 39.4544658,262.738738 39.3519635,262.805569 C38.9018447,263.105198 38.4550685,263.404827 38.0127489,263.708911 C37.82,263.842574 37.6294795,263.977351 37.4389589,264.111015 C37.0913425,264.35495 36.7459543,264.597772 36.4039087,264.843936 C36.1899909,264.997649 35.9794155,265.154703 35.767726,265.30953 C35.4501918,265.542327 35.1348858,265.776238 34.8229224,266.012376 C34.6078904,266.176114 34.3939726,266.339851 34.1800548,266.505817 C33.8747763,266.741955 33.571726,266.979208 33.26979,267.219802 C33.0603288,267.387995 32.8497534,267.556188 32.6414064,267.725495 C32.3361279,267.973886 32.0353059,268.226733 31.734484,268.478465 C31.5395068,268.644431 31.3423014,268.808168 31.1473242,268.975248 C30.8242192,269.254827 30.5066849,269.536634 30.1891507,269.820668 C30.0231416,269.968812 29.8549041,270.114728 29.6911233,270.265099 C29.2610594,270.657178 28.8354521,271.055941 28.4143014,271.460272 C28.3675068,271.504827 28.318484,271.548267 28.2716895,271.593936 C27.8070868,272.042822 27.3491689,272.500619 26.8957078,272.966213 C26.7486393,273.117698 26.6037991,273.274752 26.4578447,273.427351 C26.1536804,273.74703 25.849516,274.066708 25.5509224,274.394183 C25.3771142,274.582426 25.2077626,274.775124 25.0361826,274.966708 C24.7687854,275.268564 24.500274,275.570421 24.2362192,275.87896 C24.0590685,276.085025 23.8841461,276.294431 23.7081096,276.503837 C23.4551963,276.807921 23.2022831,277.115347 22.9527123,277.426114 C22.77779,277.642203 22.60621,277.859406 22.4346301,278.078837 C22.1850594,278.397401 21.9388311,278.721535 21.6937169,279.046782 C21.5288219,279.267327 21.3639269,279.486757 21.2001461,279.70953 C20.9472329,280.057054 20.6976621,280.410149 20.4503196,280.76547 C20.302137,280.97599 20.1528402,281.183168 20.008,281.39703 C19.7127489,281.828094 19.4241826,282.270297 19.1356164,282.714728 C19.0420274,282.85953 18.94621,282.999876 18.852621,283.146906 C18.4749224,283.741708 18.1016804,284.347649 17.7351233,284.966955 C17.6404201,285.126238 17.5490594,285.294431 17.4554703,285.454827 C17.1858447,285.919307 16.9173333,286.386015 16.6532785,286.863861 C16.5206941,287.104455 16.3925662,287.350619 16.26221,287.594554 C16.0404932,288.006683 15.8198904,288.42104 15.6026301,288.844307 C15.4644749,289.113861 15.3285479,289.391213 15.1915068,289.665223 C14.9865023,290.077351 14.7848402,290.492822 14.5831781,290.913861 C14.4472511,291.201238 14.3124384,291.490842 14.1776256,291.782673 C13.9804201,292.210396 13.7865571,292.642574 13.5938082,293.080322 C13.4634521,293.376609 13.33421,293.670668 13.2071963,293.970297 C13.0099909,294.430322 12.817242,294.899257 12.6256073,295.371535 C12.508621,295.660025 12.3894064,295.945173 12.2735342,296.239233 C12.0618447,296.772772 11.8568402,297.320792 11.6507215,297.869926 C11.5604749,298.111634 11.468,298.348886 11.3777534,298.592822 C11.0858447,299.393688 10.7983927,300.206807 10.5187397,301.039975 C10.4842009,301.140223 10.4530046,301.24604 10.4184658,301.348515 C10.1733516,302.083663 9.93157991,302.831064 9.69426484,303.592946 C9.60513242,303.881436 9.51822831,304.181064 9.42909589,304.475124 C9.25305936,305.058787 9.07590868,305.645792 8.90544292,306.246163 C8.80516895,306.595916 8.70823744,306.952351 8.61130594,307.306559 C8.4553242,307.869059 8.30045662,308.436015 8.14893151,309.011881 C8.05088584,309.391708 7.95284018,309.773762 7.85479452,310.159158 C7.70884018,310.735025 7.564,311.317574 7.42250228,311.906807 C7.32891324,312.298886 7.23421005,312.692079 7.14284932,313.089728 C7.00023744,313.701238 6.86208219,314.320545 6.7250411,314.946535 C6.63925114,315.336386 6.55234703,315.726238 6.46878539,316.123886 C6.32394521,316.803342 6.18356164,317.497277 6.04540639,318.194554 C5.9729863,318.549876 5.90056621,318.900743 5.83037443,319.26052 C5.64876712,320.201733 5.47161644,321.159653 5.29892237,322.130941 C5.27663927,322.257921 5.25212785,322.380446 5.22984475,322.50854 C5.03486758,323.619059 4.84546119,324.751856 4.66162557,325.904703 C4.61037443,326.223267 4.56246575,326.554084 4.51232877,326.877104 C4.38308676,327.713614 4.25384475,328.555693 4.13017352,329.41448 C4.06778082,329.845545 4.00873059,330.286634 3.94856621,330.723267 C3.84049315,331.496287 3.7346484,332.274876 3.63214612,333.065718 C3.56975342,333.544678 3.50958904,334.031436 3.44942466,334.517079 C3.35360731,335.292327 3.25890411,336.073144 3.16642922,336.865099 C3.10849315,337.368564 3.05055708,337.875371 2.99484932,338.386634 C2.90348858,339.193069 2.81769863,340.012871 2.73190868,340.837129 C2.67954338,341.343936 2.62717808,341.850743 2.5770411,342.364233 C2.49013699,343.245297 2.40657534,344.141955 2.32524201,345.041955 C2.28178995,345.518688 2.23722374,345.988738 2.196,346.469926 C2.1012968,347.555941 2.01216438,348.662005 1.92526027,349.77698 C1.8996347,350.088861 1.87400913,350.389604 1.84949772,350.702599 C1.7403105,352.158416 1.63446575,353.637624 1.53530594,355.144678 C1.52082192,355.37302 1.50856621,355.610272 1.49296804,355.838614 C1.4116347,357.108416 1.33364384,358.392698 1.26010959,359.699257 C1.23225571,360.180446 1.20885845,360.676114 1.18323288,361.162871 C1.12641096,362.234406 1.0707032,363.31151 1.0183379,364.406436 C0.992712329,364.981188 0.967086758,365.564851 0.941461187,366.146287 C0.895780822,367.189975 0.852328767,368.243688 0.811105023,369.310767 C0.786593607,369.915594 0.765424658,370.524876 0.743141553,371.1375 C0.705260274,372.221287 0.669607306,373.317327 0.635068493,374.423391 C0.617242009,375.031559 0.59830137,375.638614 0.581589041,376.252351 C0.571561644,376.633292 0.562648402,377.024257 0.552621005,377.407426 L44.2085662,378.031188 L47.0073242,449.319431" id="Fill-4" fill="#CEE7A2"></path>
                <path d="M212.818137,367.773639 L192.466977,303.237624 L192.468091,303.237624 L191.631361,300.581064 L193.756055,299.911634 L192.315452,295.342574 L190.18853,296.013119 L187.844347,288.575866 L189.970155,287.906436 L188.214247,282.336015 L186.088438,283.005446 L183.743142,275.569307 L185.86895,274.899876 L184.270137,269.828465 L182.145443,270.49901 L179.799032,263.060644 L181.923726,262.390099 L180.464183,257.759777 L178.338374,258.430322 L175.994192,250.993069 L178.118886,250.322525 L176.649315,245.661015 L174.524621,246.330446 L173.183178,242.07995 L173.75474,241.899505 C172.623872,241.389356 171.475178,240.884777 170.312,240.384653 L210.694557,368.441955 L212.818137,367.773639" id="Fill-5" fill="#000000"></path>
                <path d="M214.943945,367.103094 L214.943945,367.103094 L214.431434,367.265718 L214.943945,367.103094" id="Fill-6" fill="#000000"></path>
                <path d="M176.649315,245.661015 L179.689845,244.70198 C178.400767,244.063738 177.08495,243.43552 175.751306,242.815099 L176.649315,245.661015" id="Fill-7" fill="#000000"></path>
                <path d="M173.75474,241.899505 L173.183178,242.07995 L174.524621,246.330446 L176.649315,245.661015 L175.751306,242.815099 C175.090612,242.507673 174.426575,242.202475 173.75474,241.899505" id="Fill-8" fill="#000000"></path>
                <path d="M180.464183,257.759777 L194.68526,253.278713 C191.864219,251.40297 188.90168,249.61745 185.800986,247.902104 L178.118886,250.322525 L180.464183,257.759777" id="Fill-9" fill="#000000"></path>
                <path d="M175.994192,250.993069 L178.338374,258.430322 L180.464183,257.759777 L178.118886,250.322525 L175.994192,250.993069" id="Fill-10" fill="#000000"></path>
                <path d="M184.270137,269.828465 L206.845151,262.713119 C204.573388,260.64802 202.182411,258.679827 199.667763,256.798515 L181.923726,262.390099 L184.270137,269.828465" id="Fill-11" fill="#000000"></path>
                <path d="M179.799032,263.060644 L182.145443,270.49901 L184.270137,269.828465 L181.923726,262.390099 L179.799032,263.060644" id="Fill-12" fill="#000000"></path>
                <path d="M188.214247,282.336015 L216.774502,273.334901 C215.00968,271.099381 213.147927,268.965223 211.182557,266.922401 L185.86895,274.899876 L188.214247,282.336015" id="Fill-13" fill="#000000"></path>
                <path d="M183.743142,275.569307 L186.088438,283.005446 L188.214247,282.336015 L185.86895,274.899876 L183.743142,275.569307" id="Fill-14" fill="#000000"></path>
                <path d="M192.315452,295.342574 L224.640438,285.155198 C223.315708,282.777104 221.906301,280.499257 220.41779,278.309406 L189.970155,287.906436 L192.315452,295.342574" id="Fill-15" fill="#000000"></path>
                <path d="M187.844347,288.575866 L190.18853,296.013119 L192.315452,295.342574 L189.970155,287.906436 L187.844347,288.575866" id="Fill-16" fill="#000000"></path>
                <path d="M194.592785,302.568193 L219.488584,294.722153 L220.997151,299.50396 L227.022502,297.604827 L225.35684,292.320668 L227.883744,291.525371 C227.561753,290.831436 227.234192,290.144183 226.899945,289.465842 L193.756055,299.911634 L194.592785,302.568193" id="Fill-17" fill="#000000"></path>
                <path d="M193.756055,299.911634 L191.631361,300.581064 L192.468091,303.237624 L194.592785,302.568193 L193.756055,299.911634" id="Fill-18" fill="#000000"></path>
                <path d="M227.022502,297.604827 L239.918849,338.504703 C238.034813,322.080817 234.809333,308.322401 230.100913,296.63354 L227.022502,297.604827" id="Fill-19" fill="#000000"></path>
                <path d="M227.883744,291.525371 L225.35684,292.320668 L227.022502,297.604827 L230.100913,296.63354 C229.396767,294.883663 228.656968,293.183911 227.883744,291.525371" id="Fill-20" fill="#000000"></path>
                <path d="M212.818137,367.773639 L214.431434,367.265718 L212.818137,367.773639" id="Fill-21" fill="#000000"></path>
                <path d="M214.943945,367.103094 L239.839744,359.255941 L220.997151,299.50396 L196.101352,307.35 L214.943945,367.103094" id="Fill-22" fill="#000000"></path>
                <path d="M193.976658,308.019431 L192.468091,303.237624 L192.466977,303.237624 L212.818137,367.773639 L214.431434,367.265718 L214.943945,367.103094 L196.101352,307.35 L193.976658,308.019431" id="Fill-23" fill="#000000"></path>
                <path d="M194.592785,302.568193 L196.101352,307.35 L220.997151,299.50396 L219.488584,294.722153 L194.592785,302.568193" id="Fill-24" fill="#000000"></path>
                <path d="M196.101352,307.35 L194.592785,302.568193 L192.468091,303.237624 L193.976658,308.019431 L196.101352,307.35" id="Fill-25" fill="#000000"></path>
                <path d="M141.736146,280.177351 L175.263306,269.611262 L165.40526,238.349629 C164.25211,237.886262 163.088932,237.426238 161.905699,236.971782 L131.167269,246.659035 L141.736146,280.177351" id="Fill-26" fill="#000000"></path>
                <path d="M96.9816438,256.883168 L39.4355251,275.020173 L50.1614977,309.038614 L107.708731,290.901609 L96.9816438,256.883168" id="Fill-27" fill="#000000"></path>
                <path d="M203.782338,372.270297 L174.441059,279.220545 L168.437991,281.111881 L197.779269,374.161634 L203.782338,372.270297" id="Fill-28" fill="#000000"></path>
                <path d="M190.403562,374.513614 L190.356767,374.514728 L190.39242,376.489604 L190.968438,376.308045 L190.403562,374.513614" id="Fill-29" fill="#000000"></path>
                <path d="M190.403562,374.513614 L161.626046,283.259406 L157.874685,284.441213 L187.215963,377.490965 L190.39242,376.489604 L190.356767,374.514728 L190.403562,374.513614" id="Fill-30" fill="#000000"></path>
                <path d="M145.123178,288.460025 L174.465571,381.509777 L178.216932,380.326856 L148.875653,287.277104 L145.123178,288.460025" id="Fill-31" fill="#000000"></path>
                <path d="M132.372785,292.478837 L161.714064,385.528589 L165.466539,384.346782 L136.124146,291.295916 L132.372785,292.478837" id="Fill-32" fill="#000000"></path>
                <path d="M119.620164,296.496535 L148.962557,389.547401 L152.715032,388.36448 L123.372639,295.314728 L119.620164,296.496535" id="Fill-33" fill="#000000"></path>
                <path d="M106.869772,300.51646 L136.21105,393.566213 L139.963525,392.383292 L110.621132,299.33354 L106.869772,300.51646" id="Fill-34" fill="#000000"></path>
                <path d="M95.8986849,303.973886 L125.241078,397.023639 L131.807909,394.954084 L102.465516,301.904332 L95.8986849,303.973886" id="Fill-35" fill="#000000"></path>
                <path d="M82.0853881,308.32797 L111.426667,401.377723 L117.993498,399.307054 L88.651105,306.258416 L82.0853881,308.32797" id="Fill-36" fill="#000000"></path>
                <path d="M75.6611689,317.260025 L72.3777534,318.294802 L97.44179,397.777723 L100.724091,396.742946 L103.021479,404.027599 L106.304895,402.991708 L76.9636164,309.941955 L70.3967854,312.01151 L70.4079269,312.050495 L73.6924566,311.016832 L75.6611689,317.260025" id="Fill-37" fill="#000000"></path>
                <path d="M18.1841279,335.374752 L16.2165297,329.131559 L10.0318539,331.079703 L12.0005662,337.32401 L18.1841279,335.374752" id="Fill-38" fill="#000000"></path>
                <path d="M58.9376986,322.529703 L56.9689863,316.28651 L47.9131324,319.141337 L49.8818447,325.385644 L58.9376986,322.529703" id="Fill-39" fill="#000000"></path>
                <path d="M30.9367489,331.355941 L28.9680365,325.112748 L22.7833607,327.062005 L24.7520731,333.305198 L30.9367489,331.355941" id="Fill-40" fill="#000000"></path>
                <path d="M46.1861918,326.549629 L44.2174795,320.305322 L35.5337534,323.042079 L37.5024658,329.286386 L46.1861918,326.549629" id="Fill-41" fill="#000000"></path>
                <path d="M72.3777534,318.294802 L70.4079269,312.050495 L60.662411,315.122525 L62.6322374,321.366832 L72.3777534,318.294802" id="Fill-42" fill="#000000"></path>
                <path d="M3.57643836,333.504579 C3.2990137,335.676609 3.03830137,337.914356 2.79541553,340.225619 L5.43373516,339.393564 L3.57643836,333.504579" id="Fill-43" fill="#000000"></path>
                <path d="M75.6611689,317.260025 L73.6924566,311.016832 L70.4079269,312.050495 L72.3777534,318.294802 L75.6611689,317.260025" id="Fill-44" fill="#000000"></path>
                <path d="M103.021479,404.027599 L99.7391781,405.061262 L97.44179,397.777723 L87.6951598,400.849752 L89.9925479,408.133292 L86.2980091,409.297277 L84.0017352,402.013738 L74.9447671,404.868564 L77.2410411,412.15099 L73.5476164,413.316089 L71.2502283,406.03255 L62.5665023,408.769307 L64.8638904,416.051733 L58.2970594,418.122401 L56.0007854,410.839975 L49.8161096,412.788119 L52.1123836,420.071658 L45.9355068,422.018688 L45.9399635,422.111139 L103.048219,404.113366 L103.021479,404.027599" id="Fill-45" fill="#000000"></path>
                <path d="M97.44179,397.777723 L99.7391781,405.061262 L103.021479,404.027599 L100.724091,396.742946 L97.44179,397.777723" id="Fill-46" fill="#000000"></path>
                <path d="M0.814447489,369.199381 L3.416,377.448639 L10.6669224,377.552228 L1.92191781,349.817079 C1.45174429,355.833045 1.08184475,362.280074 0.814447489,369.199381" id="Fill-47" fill="#000000"></path>
                <path d="M3.63437443,333.053465 L3.45276712,333.110272 L3.46502283,333.150371 L3.6276895,333.099134 C3.62991781,333.08354 3.63214612,333.067946 3.63437443,333.053465" id="Fill-48" fill="#000000"></path>
                <path d="M10.0318539,331.079703 L10.018484,331.040718 L3.63437443,333.053465 C3.63214612,333.067946 3.62991781,333.08354 3.6276895,333.099134 L10.0318539,331.079703" id="Fill-49" fill="#000000"></path>
                <path d="M24.7487306,377.753837 L12.0005662,337.32401 L5.43373516,339.393564 L17.4978082,377.649134 L24.7487306,377.753837" id="Fill-50" fill="#000000"></path>
                <path d="M3.6276895,333.099134 L3.46502283,333.150371 L3.57643836,333.504579 C3.59426484,333.369802 3.60986301,333.232797 3.6276895,333.099134" id="Fill-51" fill="#000000"></path>
                <path d="M3.57643836,333.504579 L5.43373516,339.393564 L12.0005662,337.32401 L10.0318539,331.079703 L3.6276895,333.099134 C3.60986301,333.232797 3.59426484,333.369802 3.57643836,333.504579" id="Fill-52" fill="#000000"></path>
                <path d="M45.6246575,414.109158 L49.8161096,412.788119 L44.9695342,397.419059 L45.6246575,414.109158" id="Fill-53" fill="#000000"></path>
                <path d="M38.831653,377.953218 L24.7520731,333.305198 L18.1841279,335.374752 L31.5785023,377.850743 L38.831653,377.953218" id="Fill-54" fill="#000000"></path>
                <path d="M22.771105,327.021906 L16.2031598,329.09146 L16.2165297,329.131559 L22.7833607,327.062005 L22.771105,327.021906" id="Fill-55" fill="#000000"></path>
                <path d="M24.7520731,333.305198 L22.7833607,327.062005 L16.2165297,329.131559 L18.1841279,335.374752 L24.7520731,333.305198" id="Fill-56" fill="#000000"></path>
                <path d="M45.9355068,422.018688 L52.1123836,420.071658 L49.8161096,412.788119 L45.6246575,414.109158 L45.9355068,422.018688" id="Fill-57" fill="#000000"></path>
                <path d="M35.5214977,323.003094 L28.9546667,325.072649 L28.9680365,325.112748 L35.5337534,323.042079 L35.5214977,323.003094" id="Fill-58" fill="#000000"></path>
                <path d="M30.9367489,331.355941 L56.0007854,410.839975 L62.5665023,408.769307 L37.5024658,329.286386 L30.9367489,331.355941" id="Fill-59" fill="#000000"></path>
                <path d="M37.5024658,329.286386 L35.5337534,323.042079 L28.9680365,325.112748 L30.9367489,331.355941 L37.5024658,329.286386" id="Fill-60" fill="#000000"></path>
                <path d="M58.2970594,418.122401 L64.8638904,416.051733 L62.5665023,408.769307 L56.0007854,410.839975 L58.2970594,418.122401" id="Fill-61" fill="#000000"></path>
                <path d="M46.1861918,326.549629 L71.2502283,406.03255 L74.9447671,404.868564 L49.8818447,325.385644 L46.1861918,326.549629" id="Fill-62" fill="#000000"></path>
                <path d="M47.8997626,319.101238 L44.2052237,320.266337 L44.2174795,320.305322 L47.9131324,319.141337 L47.8997626,319.101238" id="Fill-63" fill="#000000"></path>
                <path d="M49.8818447,325.385644 L47.9131324,319.141337 L44.2174795,320.305322 L46.1861918,326.549629 L49.8818447,325.385644" id="Fill-64" fill="#000000"></path>
                <path d="M73.5476164,413.316089 L77.2410411,412.15099 L74.9447671,404.868564 L71.2502283,406.03255 L73.5476164,413.316089" id="Fill-65" fill="#000000"></path>
                <path d="M58.9376986,322.529703 L84.0017352,402.013738 L87.6951598,400.849752 L62.6322374,321.366832 L58.9376986,322.529703" id="Fill-66" fill="#000000"></path>
                <path d="M60.6512694,315.08354 L56.9567306,316.247525 L56.9689863,316.28651 L60.662411,315.122525 L60.6512694,315.08354" id="Fill-67" fill="#000000"></path>
                <path d="M62.6322374,321.366832 L60.662411,315.122525 L56.9689863,316.28651 L58.9376986,322.529703 L62.6322374,321.366832" id="Fill-68" fill="#000000"></path>
                <path d="M86.2980091,409.297277 L89.9925479,408.133292 L87.6951598,400.849752 L84.0017352,402.013738 L86.2980091,409.297277" id="Fill-69" fill="#000000"></path>
                <path d="M133.234027,282.694678 L122.637297,249.091708 L118.394594,250.429455 L128.99021,284.031312 L133.234027,282.694678" id="Fill-70" fill="#000000"></path>
                <path d="M120.482521,286.712376 L109.886904,253.11052 L105.643087,254.447153 L116.239817,288.050124 L120.482521,286.712376" id="Fill-71" fill="#000000"></path>
                <path d="M26.2695525,279.105817 L36.8651689,312.708787 L41.1089863,311.37104 L30.5122557,277.769183 L26.2695525,279.105817" id="Fill-72" fill="#000000"></path>
                <path d="M28.3563653,315.389851 L18.4136438,283.85755 C17.374137,285.538366 16.3791963,287.311634 15.4310502,289.189604 L24.1136621,316.727599 L28.3563653,315.389851" id="Fill-73" fill="#000000"></path>
                <path d="M15.6549954,319.393069 L10.1889498,302.058045 C9.39567123,304.486262 8.65141553,307.053713 7.95506849,309.768193 L11.4111781,320.729703 L15.6549954,319.393069" id="Fill-74" fill="#000000"></path>
                <path d="M6.21587215,317.336881 C5.80252055,319.360767 5.4103379,321.460396 5.04043836,323.635767 L7.91718721,322.72797 L6.21587215,317.336881" id="Fill-75" fill="#000000"></path>
                <path d="M157.469132,220.028837 L62.5275068,249.951609 C50.6784658,255.956436 40.5608219,261.148144 32.1389224,268.137624 L156.68811,228.882921 L157.469132,220.028837" id="Fill-76" fill="#000000"></path>
                <path d="M83.3744658,228.160025 L67.9055342,233.035396 L69.5890228,241.113119 L84.5432146,236.399257 L83.3744658,228.160025" id="Fill-77" fill="#000000"></path>
                <path d="M238.850374,373.351856 L241.908731,372.387252 C241.870849,369.473391 241.802886,366.626361 241.710411,363.840594 L209.286265,374.060272 L238.850374,373.351856" id="Fill-78" fill="#000000"></path>
                <path d="M190.454813,379.994926 L46.0725479,425.500619 L46.4056804,434.003837 L190.610795,388.55495 L190.454813,379.994926" id="Fill-79" fill="#000000"></path>
                <path d="M190.707726,393.930446 L46.6162557,439.344802 L46.9505023,447.846906 L190.862594,402.49047 L190.707726,393.930446" id="Fill-80" fill="#000000"></path>
                <path d="M86.7470137,449.319431 L191.114393,416.424876 L190.960639,407.867079 L59.4323836,449.319431 L86.7470137,449.319431" id="Fill-81" fill="#000000"></path>
                <path d="M116.974046,449.319431 L191.287087,425.898267 L191.209096,421.617698 L103.317845,449.319431 L116.974046,449.319431" id="Fill-82" fill="#000000"></path>
                <path d="M161.443324,449.319431 L191.538886,439.833787 L191.462009,435.553218 L147.784895,449.319431 L161.443324,449.319431" id="Fill-83" fill="#000000"></path>
                <path d="M144.917059,219.378342 C141.243689,208.910272 138.727927,194.16052 141.507744,174.879579 L78.5457169,198.877723 L89.1703014,266.936881 L90.0961644,266.551485 L101.762484,231.923762 L144.917059,219.378342" id="Fill-84" fill="#619210"></path>
                <path d="M158.829516,117.216089 L155.12495,179.556683 L56.7483836,213.176361 C56.7483836,213.176361 -12.2947032,147.496411 28.7184658,28.6217822 C28.7184658,28.6217822 112.361443,-30.784901 188.817005,46.7064356 L158.829516,117.216089" id="Fill-85" fill="#CEE7A2"></path>
                <path d="M50.787653,184.707178 L73.4428858,177.96052 L49.8506484,171.14146 L50.787653,184.707178" id="Fill-86" fill="#A8CD25"></path>
                <path d="M78.4231598,107.283787 L120.033516,112.427599 C120.033516,112.427599 101.009315,126.678342 75.8528037,116.761634 L78.4231598,107.283787" id="Fill-87" fill="#FFFFFF"></path>
                <path d="M99.4483836,112.63255 C99.2701187,116.806188 95.7427032,120.045297 91.5690776,119.867079 C87.3943379,119.689975 84.1543744,116.162376 84.3315251,111.989851 C84.5109041,107.817327 88.0383196,104.579332 92.2130594,104.756436 C96.3855708,104.93354 99.6255342,108.461139 99.4483836,112.63255" id="Fill-88" fill="#A8CD25"></path>
                <path d="M62.4472877,105.502723 L125.769187,110.561881 L129.862594,100.759901 L70.666411,85.1157178" id="Fill-89" fill="#CEE7A2"></path>
                <path d="M59.6663562,113.955817 L57.9583562,106.977475 L80.2459178,108.902228 L81.216347,109.129455 L124.444457,113.110396 L129.168475,102.34604 L67.3016621,88.1365099" id="Fill-90" fill="#619210"></path>
                <path d="M77.9440731,108.612624 L78.1680183,106.956312 L125.662228,113.388861 L124.698484,115.155446 L77.9440731,108.612624" id="Fill-91" fill="#000000"></path>
                <path d="M53.5819543,174.548762 C53.5819543,174.548762 41.903379,147.369431 62.5921279,108.257302 C84.0262466,73.4769802 42.7779909,73.044802 42.7779909,73.044802 L17.8777352,76.869802 C5.81589041,169.045173 56.7483836,213.176361 56.7483836,213.176361 L65.212621,210.283663 L53.5819543,174.548762" id="Fill-92" fill="#619210"></path>
                <path d="M53.5139909,110.775743 C53.5139909,110.775743 27.0082374,123.990594 15.7608402,108.408787 L15.7608402,103.428713 L55.0481826,109.649629" id="Fill-93" fill="#CEE7A2"></path>
                <path d="M36.6991598,106.900619 C36.520895,111.07203 32.9934795,114.311139 28.8198539,114.134035 C24.6451142,113.955817 21.4062648,110.429332 21.5845297,106.255693 C21.7616804,102.083168 25.2890959,98.8440594 29.4627215,99.0211634 C33.6374612,99.200495 36.8763105,102.72698 36.6991598,106.900619" id="Fill-94" fill="#619210"></path>
                <path d="M30.7261735,107.609035 C30.6570959,109.260891 29.2610594,110.544059 27.607653,110.473886 C25.9553607,110.403713 24.672968,109.005817 24.7420457,107.355074 C24.8133516,105.70099 26.2093881,104.42005 27.8627945,104.491337 C29.5150868,104.56151 30.7974795,105.956064 30.7261735,107.609035" id="Fill-95" fill="#000000"></path>
                <path d="M15.7964932,96.3211634 C15.7285297,98.6970297 15.6939909,101.050619 15.7140457,103.35854 L55.6932785,110.912748 L41.8810959,95.1772277 L15.7964932,96.3211634" id="Fill-96" fill="#A8CD25"></path>
                <path d="M15.4232511,103.669307 L15.7418995,102.030817 L55.0481826,109.649629 L54.7284201,111.289233 L15.4232511,103.669307" id="Fill-97" fill="#000000"></path>
                <path d="M16.1485662,94.8675743 L41.7551963,97.0607673 L54.8899726,110.470545 L35.3142648,143.896411 L50.4846027,147.122153 L91.5490228,25.6310644 L70.9494064,10.5014851 C45.5254977,16.6945545 28.7184658,28.6217822 28.7184658,28.6217822 C21.8842374,48.4318069 18.1183927,66.7570545 16.5674886,83.555198 C16.362484,87.1563119 16.2343562,90.8821782 16.1485662,94.8675743" id="Fill-98" fill="#FFFFFF"></path>
                <path d="M152.820877,39.9230198 L90.9629772,200.884901 L96.3332055,199.647401 L155.12495,179.556683 L158.811689,123.776733 L173.744712,111.752599 L180.48758,87.1975248 L152.820877,39.9230198" id="Fill-99" fill="#A8CD25"></path>
                <path d="M153.444804,143.456436 L174.445516,117.609282 L190.145078,47.2143564 C113.933516,-30.0308168 42.4170046,8.16905941 27.9719817,29.3023515 L148.374283,51.9917079 L134.667945,87.6530941 C134.667945,87.6530941 155.380091,108.062376 153.444804,143.456436" id="Fill-100" fill="#619210"></path>
                <path d="M148.374283,51.9917079 L133.718685,88.5285891 C133.718685,88.5285891 152.986886,105.654208 153.519452,138.607797 L156.216822,140.044678 L174.445516,117.609282 L190.145078,47.2143564 C184.386009,41.375495 178.655909,36.2082921 172.971489,31.6314356 L90.3479635,40.7840347 L148.374283,51.9917079" id="Fill-101" fill="#000000"></path>
                <path d="M52.4822831,10.3967822 C40.5853333,16.0875 32.0275068,23.367698 27.9719817,29.3023515 L61.5191963,35.477599 L52.4822831,10.3967822" id="Fill-102" fill="#000000"></path>
                <path d="M66.3234338,100.253094 L106.250301,97.0429455 L70.5494247,88.6511139" id="Fill-103" fill="#000000"></path>
                <path d="M61.3498447,192.863985 C54.7718721,192.584406 48.556,194.208416 43.2258813,197.237005 C50.6773516,207.908911 56.7483836,213.176361 56.7483836,213.176361 L84.6869406,203.628342 C78.8387397,197.33948 70.6107032,193.258292 61.3498447,192.863985" id="Fill-104" fill="#FFFFFF"></path>
                <path d="M50.0823927,143.037624 C50.0823927,143.037624 55.5361826,135.996906 64.200968,144.425495" id="Fill-105" fill="#000000"></path>
                <path d="M15.9836712,91.6496287 L15.9469041,96.8079208 L41.7551963,97.0607673 L42.1128402,96.8435644 L16.3212603,86.4378713 C16.183105,88.1933168 16.0728037,89.9287129 15.9836712,91.6496287" id="Fill-106" fill="#000000"></path>
                <path d="M94.7232511,112.986757 C94.6519452,114.639728 93.2559087,115.921782 91.6036164,115.851609 C89.95021,115.781436 88.6667032,114.38354 88.7380091,112.732797 C88.8082009,111.079827 90.2053516,109.797772 91.858758,109.867946 C93.5110502,109.938119 94.7934429,111.333787 94.7232511,112.986757" id="Fill-107" fill="#000000"></path>
                <path d="M34.5655525,27.7139851 L34.5655525,27.7128713 L34.5644384,27.7139851 L34.5655525,27.7139851" id="Fill-108" fill="#A8CD25"></path>
                <path d="M110.817224,10.6652228 C65.556895,10.6674505 34.0474703,26.557797 33.9928767,26.5800743 L34.5655525,27.7128713 C34.633516,27.6772277 36.5565479,26.7115099 40.1341005,25.2579208 C51.0338813,20.8191832 77.0962009,11.9294554 110.817224,11.9294554 C122.948146,11.9305693 136.075123,13.0945545 149.841626,16.015099 C148.534721,15.2955446 147.233388,14.6049505 145.934283,13.9444307 C133.591671,11.6186881 121.79611,10.6641089 110.817224,10.6652228" id="Fill-109" fill="#A8CD25"></path>
                <path d="M173.726886,32.2518564 C152.954575,23.3108911 132.120986,20.2711634 113.418776,20.2733911 C80.6481279,20.2756188 54.4209132,29.5663366 46.3555434,32.7664604 L48.71421,33.2097772 C52.1190685,31.925495 57.3734247,30.1032178 64.1107215,28.2720297 C76.4923288,24.9037129 93.7862466,21.5387376 113.418776,21.5387376 C133.219543,21.5387376 155.392347,24.9649752 177.326721,35.2592822 C176.124548,34.2289604 174.924603,33.227599 173.726886,32.2518564" id="Fill-110" fill="#A8CD25"></path>
                <path d="M34.5655525,27.7139851 L34.5655525,27.7128713 L34.5644384,27.7139851 L34.5655525,27.7139851" id="Fill-111" fill="#E74910"></path>
                <path d="M34.5655525,27.7128713 C34.633516,27.6772277 36.5565479,26.7115099 40.1341005,25.2579208 C43.7773881,23.7742574 49.123105,21.792698 55.8737717,19.8133663 L55.4448219,18.6181931 C41.9067215,22.5924505 34.0196164,26.5689356 33.9928767,26.5800743 L34.5655525,27.7128713" id="Fill-112" fill="#619210"></path>
                <path d="M46.3555434,32.7664604 L48.71421,33.2097772 C48.7654612,33.1908416 48.8245114,33.1685644 48.8757626,33.1507426 L46.4948128,32.7118812 C46.4502466,32.729703 46.4001096,32.7486386 46.3555434,32.7664604" id="Fill-113" fill="#E74910"></path>
                <path d="M46.4948128,32.7118812 L48.8757626,33.1507426 C51.4327489,32.1883663 54.9880183,30.9419554 59.406758,29.6164604 L58.9778082,28.4235149 C53.3178995,30.1243812 49.0462283,31.7038366 46.4948128,32.7118812" id="Fill-114" fill="#619210"></path>
                <path d="M188.35463,55.245297 C169.003982,37.0615099 139.087799,32.5392327 113.84884,32.5292079 C92.0604201,32.5314356 73.7303379,35.919802 68.6107945,36.9601485 L71.9955982,37.5983911 C74.2785023,37.1818069 77.3513425,36.6660891 81.0525662,36.1470297 C89.4599817,34.9696782 101.063909,33.7956683 113.84884,33.7956683 C139.195872,33.7856436 169.135452,38.4415842 188.033753,56.6844059 L188.35463,55.245297" id="Fill-115" fill="#A8CD25"></path>
                <path d="M143.338301,34.915099 L138.584201,35.4408416 C156.898685,38.0461634 175.064986,44.1657178 188.033753,56.6844059 L188.35463,55.245297 C176.242648,43.8638614 159.99158,37.8356436 143.338301,34.915099" id="Fill-116" fill="#619210"></path>
                <path d="M177.343434,99.3107673 C170.45684,80.1534653 155.85695,70.3681931 143.221315,65.4003713 L142.821333,66.439604 C155.275361,71.349505 169.543233,80.9153465 176.2939,99.6883663 L177.343434,99.3107673" id="Fill-117" fill="#619210"></path>
                <path d="M180.829626,88.9852723 C176.367434,80.5076733 165.613607,64.3600248 145.976621,58.2304455 L145.575525,59.2719059 C165.765132,65.5240099 176.477735,82.7398515 180.450813,90.6850248 L180.829626,88.9852723" id="Fill-118" fill="#619210"></path>
                <path d="M135.815525,45.4967822 C128.164621,45.4967822 122.506941,46.4936881 120.896986,46.8133663 L124.074557,47.4115099 C126.757443,47.0339109 130.858648,46.6095297 135.815525,46.6095297 C150.115708,46.6128713 171.308055,50.150495 185.416603,68.4167079 L185.727452,67.0221535 C171.305826,48.9876238 150.083397,45.4945545 135.815525,45.4967822" id="Fill-119" fill="#619210"></path>
                <path d="M79.6621005,198.179332 L77.9774977,198.502351 L77.7112146,206.012005 L79.4047306,205.433911 L79.6621005,198.179332" id="Fill-120" fill="#000000"></path>
                <path d="M75.0405845,199.065965 L73.3570959,199.388985 L73.0651872,207.600371 L74.7564749,207.021163 L75.0405845,199.065965" id="Fill-121" fill="#000000"></path>
                <path d="M150.454411,102.635644 C150.454411,102.635644 151.818137,110.860396 149.559744,121.903218 L147.41611,182.190965 L149.109626,181.612871 L151.396986,117.300743 L154.331671,116.819554 L152.063251,180.603713 L153.756767,180.024505 L156.014046,116.543317 L156.922082,116.394059 L157.072493,111.125495 L150.454411,102.635644" id="Fill-122" fill="#000000"></path>
                <path d="M88.9062466,196.406064 L87.222758,196.729084 L87.0054977,202.836386 L88.6978995,202.257178 L88.9062466,196.406064" id="Fill-123" fill="#000000"></path>
                <path d="M84.2836164,197.292698 L82.6001279,197.615718 L82.3583562,204.423639 L84.0518721,203.845545 L84.2836164,197.292698" id="Fill-124" fill="#000000"></path>
                <path d="M70.4179543,199.952599 L68.7333516,200.275619 L68.4169315,209.188738 L70.1104475,208.60953 L70.4179543,199.952599" id="Fill-125" fill="#000000"></path>
                <path d="M65.7953242,200.839233 L64.1129498,201.162252 L63.76979,210.777104 L65.4621918,210.197896 L65.7953242,200.839233" id="Fill-126" fill="#000000"></path>
                <path d="M56.5511781,202.611386 L54.8688037,202.934406 L54.5869224,210.833911 L56.1968767,212.579332 L56.5511781,202.611386" id="Fill-127" fill="#000000"></path>
                <path d="M51.7770228,207.788614 L51.9296621,203.49802 L50.2472877,203.82104 L50.1670685,206.043193 L51.7770228,207.788614" id="Fill-128" fill="#000000"></path>
                <path d="M60.8161644,211.786262 L61.1738082,201.724752 L59.4903196,202.047772 L59.1237626,212.364356 L60.8161644,211.786262" id="Fill-129" fill="#000000"></path>
                <path d="M93.5277626,195.519431 L91.844274,195.84245 L91.6526393,201.24802 L93.3450411,200.668812 L93.5277626,195.519431" id="Fill-130" fill="#000000"></path>
                <path d="M126.994758,158.029084 C126.434338,158.466832 125.862776,158.89901 125.275616,159.327847 L124.180402,190.131683 L125.873918,189.553589 L126.994758,158.029084" id="Fill-131" fill="#000000"></path>
                <path d="M136.499616,148.939975 C135.938082,149.602723 135.36095,150.264356 134.754849,150.919307 L133.473571,186.956064 L135.167087,186.376856 L136.499616,148.939975" id="Fill-132" fill="#000000"></path>
                <path d="M98.6239087,181.307673 L96.7487854,186.988366 L96.2986667,199.659653 L97.9910685,199.081559 L98.6239087,181.307673" id="Fill-133" fill="#000000"></path>
                <path d="M146.252932,132.851361 C145.710338,134.186881 145.10758,135.534653 144.435744,136.889109 L142.768968,183.779332 L144.46137,183.201238 L146.252932,132.851361" id="Fill-134" fill="#000000"></path>
                <path d="M141.323909,142.411634 C140.767945,143.283787 140.176329,144.153713 139.556858,145.020297 L138.121826,185.367698 L139.815342,184.78849 L141.323909,142.411634" id="Fill-135" fill="#000000"></path>
                <path d="M122.285224,161.410767 C121.725918,161.778342 121.153242,162.140347 120.572767,162.501238 L119.53326,191.72005 L121.22789,191.140842 L122.285224,161.410767" id="Fill-136" fill="#000000"></path>
                <path d="M131.729918,153.966832 C131.170612,154.495916 130.593479,155.019431 130.001863,155.539604 L128.827543,188.544431 L130.521059,187.965223 L131.729918,153.966832" id="Fill-137" fill="#000000"></path>
                <path d="M103.595269,170.580074 C103.057132,170.772772 102.524566,170.968812 101.973059,171.157054 L101.895068,171.395421 L100.946922,198.071287 L102.639324,197.494307 L103.595269,170.580074" id="Fill-138" fill="#000000"></path>
                <path d="M117.592402,164.254455 C117.031982,164.568564 116.465991,164.880446 115.887744,165.188985 L114.886119,193.308416 L116.579635,192.729208 L117.592402,164.254455" id="Fill-139" fill="#000000"></path>
                <path d="M108.25021,168.777847 C107.690904,169.010644 107.127142,169.241213 106.554466,169.468441 L105.591836,196.484035 L107.285352,195.905941 L108.25021,168.777847" id="Fill-140" fill="#000000"></path>
                <path d="M112.916292,166.687129 C112.356986,166.957797 111.790995,167.225124 111.214977,167.487995 L110.240091,194.895668 L111.933607,194.317574 L112.916292,166.687129" id="Fill-141" fill="#000000"></path>
                <path d="M62.6121826,161.282673 C62.0662466,160.891708 61.5225388,160.486262 60.9832877,160.056312 L60.3916712,176.691832 L62.0573333,176.867822 L62.6121826,161.282673" id="Fill-142" fill="#619210"></path>
                <path d="M57.483726,176.384406 L58.1533333,157.541213 C57.6051689,157.002104 57.0703744,156.431807 56.543379,155.84146 L55.8191781,176.20953 L57.483726,176.384406" id="Fill-143" fill="#619210"></path>
                <path d="M53.7513059,152.270421 C53.1986849,151.457302 52.6728037,150.599629 52.1714338,149.706312 L51.5475068,167.250743 C52.0555616,169.831559 52.6115251,171.750743 53.0148493,172.979332 L53.7513059,152.270421" id="Fill-144" fill="#619210"></path>
                <path d="M71.6201279,166.149134 C71.0797626,165.934158 70.5293699,165.701361 69.9734064,165.455198 L69.5388858,177.656436 L71.2045479,177.832426 L71.6201279,166.149134" id="Fill-145" fill="#619210"></path>
                <path d="M80.7094064,168.747772 C80.2080365,168.658663 79.6509589,168.548391 79.0482009,168.416955 L78.6849863,178.62104 L80.3517626,178.79703 L80.7094064,168.747772" id="Fill-146" fill="#619210"></path>
                <path d="M67.1044566,164.057302 C66.5585205,163.766584 66.0125845,163.461386 65.4655342,163.138366 L64.9663927,177.174134 L66.6309406,177.350124 L67.1044566,164.057302" id="Fill-147" fill="#619210"></path>
                <path d="M76.1558539,167.68849 C75.6210594,167.535891 75.072895,167.373267 74.5024475,167.188366 L74.1136073,178.139851 L75.7781553,178.314728 L76.1558539,167.68849" id="Fill-148" fill="#619210"></path>
                <path d="M53.7212237,176.489109 L74.9926758,178.21448 C74.9926758,178.21448 54.2693881,173.22995 50.8255342,167.337624" id="Fill-149" fill="#000000"></path>
                <path d="M32.3105023,22.9889851 L57.9527854,57.5844059 L30.7829954,30.2335396 L44.9026849,56.4204208 L20.1327854,22.7751238 C20.1338995,22.7751238 24.5593242,19.004703 32.3105023,22.9889851" id="Fill-150" fill="#000000"></path>
                <path d="M187.533498,131.11151 C181.888073,146.624257 170.610594,156.759282 162.346904,153.751856 C154.084329,150.746658 151.959635,135.734035 157.603945,120.222401 C163.251598,104.712995 174.530192,94.5768564 182.794995,97.5820545 C191.056457,100.590594 193.182265,115.60099 187.533498,131.11151" id="Fill-151" fill="#FFFFFF"></path>
                <path d="M182.794995,97.5820545 C181.422356,97.0830446 179.967269,96.9549505 178.470959,97.1443069 L162.165297,153.664975 C162.227689,153.68948 162.283397,153.729579 162.346904,153.751856 C170.610594,156.759282 181.888073,146.624257 187.533498,131.11151 C193.182265,115.60099 191.056457,100.590594 182.794995,97.5820545" id="Fill-152" fill="#CEE7A2"></path>
            </g>
        </g>
    </g>
</svg>
