<?xml version="1.0" encoding="UTF-8" standalone="no"?>
<svg width="457px" height="450px" viewBox="0 0 457 450" version="1.1" xmlns="http://www.w3.org/2000/svg" xmlns:xlink="http://www.w3.org/1999/xlink">
    <defs></defs>
    <g id="helfigur" stroke="none" stroke-width="1" fill="none" fill-rule="evenodd">
        <g id="dag-helge">
            <g id="Imported-Layers">
                <path d="M349.211943,285.173958 L335.153839,274.533333 L336.119336,266.486458 C336.119336,266.486458 283.746825,268.822917 252.467204,237.583333 L193.968057,259.011458 L63.0419905,347.771875 L86.6320379,402.852083 L178.715071,333.65 C178.715071,333.65 214.544834,379.421875 192.247678,449.144792 L312.548057,449.144792 L322.078957,338.895833 L389.427109,375.739583 L349.211943,285.173958" id="Fill-1" fill="#FFFFFF"></path>
                <path d="M135.941232,108.039583 L119.017915,96.8802083 L132.215829,115.139583 L117.663507,108.039583 L129.846919,120.890625 L120.031374,118.859375 L130.185782,130.019792 L146.431374,118.521875 L149.817915,110.06875" id="Fill-2" fill="#000000"></path>
                <path d="M331.510806,236.76875 C309.1,213.159375 330.696493,193.620833 330.696493,193.620833 L336.809573,198.911458 C324.992133,213.566667 339.253555,234.733333 339.253555,234.733333" id="Fill-3" fill="#619210"></path>
                <path d="M207.693555,177.020833 L255.727583,240.430208 L205.178673,294.983333 L184.000284,253.44375" id="Fill-4" fill="#619210"></path>
                <path d="M81.8744076,391.742708 L86.6320379,402.852083 L178.715071,333.65 C178.715071,333.65 200.452322,360.136458 199.543128,405.269792 C199.405498,418.464583 197.354597,433.175 192.247678,449.144792 L263.030332,449.144792 L205.178673,294.983333 L81.8744076,391.742708" id="Fill-5" fill="#CEE7A2"></path>
                <path d="M72.8272986,341.138542 L70.8744076,342.463542 L70.8660664,342.533333 L104.357156,389.532292 L105.814787,388.4375 L72.7459716,342.027083 L72.8272986,341.138542" id="Fill-6" fill="#A8CD25"></path>
                <path d="M71.3404739,367.145833 L96.5945972,395.36875 L98.0574408,394.265625 L69.0904265,361.89375 L71.3404739,367.145833" id="Fill-7" fill="#A8CD25"></path>
                <path d="M80.6127962,335.860417 L79.1051185,336.882292 L112.763033,383.215625 L114.221706,382.120833 L80.6127962,335.860417" id="Fill-8" fill="#A8CD25"></path>
                <path d="M90.7150711,329.011458 L118.288057,379.061458 L119.761327,377.954167 L92.2300474,327.985417 L90.7150711,329.011458" id="Fill-9" fill="#A8CD25"></path>
                <path d="M344.594028,351.213542 L363.228341,316.7375 L362.843602,315.873958 L362.296209,314.6375 L342.994597,350.338542 L344.594028,351.213542" id="Fill-10" fill="#A8CD25"></path>
                <path d="M349.590427,353.946875 L351.1909,354.822917 C354.150995,348.908333 358.829384,339.544792 366.570047,324.266667 L366.012227,323.008333 L365.617062,322.117708 C357.497915,338.133333 352.634976,347.859375 349.590427,353.946875" id="Fill-11" fill="#A8CD25"></path>
                <path d="M357.514597,358.28125 L359.125498,359.1625 L373.286825,339.389583 L372.427678,337.457292 L357.514597,358.28125" id="Fill-12" fill="#A8CD25"></path>
                <path d="M229.943791,268.25625 L196.420379,230.176042 L187.077156,258.69375 L191.343697,267.842708 L205.178673,294.983333 L229.943791,268.25625" id="Fill-13" fill="#A8CD25"></path>
                <path d="M206.34019,160.789583 C206.34019,160.789583 248.649005,256.146875 156.587867,273.055208 C156.587867,273.055208 152.184739,226.389583 115.631374,205.763542 C115.631374,205.763542 106.831374,142.530208 137.632417,116.154167 C168.431374,89.7791667 244.925687,94.1760417 229.35782,169.920833 L206.34019,160.789583" id="Fill-14" fill="#CEE7A2"></path>
                <path d="M151.321422,218.09375 L151.170237,219.290625 L152.180569,219.127083 L151.321422,218.09375" id="Fill-15" fill="#619210"></path>
                <path d="M159.491659,217.948958 L161.175545,217.678125 L156.378294,211.91875 L157.856777,211.109375 L152.184739,211.176042 L151.737441,214.763542 L154.994692,218.673958 L156.677536,218.403125 L152.874976,213.835417 L155.066635,212.636458 L159.491659,217.948958" id="Fill-16" fill="#619210"></path>
                <path d="M160.778294,211.077083 L158.882749,211.096875 L163.989668,217.225 L165.67564,216.952083 L160.778294,211.077083" id="Fill-17" fill="#619210"></path>
                <path d="M175.93327,210.901042 L174.043981,210.921875 L177.485782,215.05 L179.167583,214.780208 L175.93327,210.901042" id="Fill-18" fill="#619210"></path>
                <path d="M182.56872,214.01875 L181.580284,211.554167 L180.985972,210.841667 L179.096682,210.863542 L181.979621,214.323958 L182.259052,214.28125 C182.362275,214.19375 182.464455,214.105208 182.56872,214.01875" id="Fill-19" fill="#619210"></path>
                <path d="M165.833081,211.015625 L163.940664,211.038542 L168.48872,216.5 L170.172607,216.228125 L165.833081,211.015625" id="Fill-20" fill="#619210"></path>
                <path d="M170.881611,210.959375 L168.989194,210.980208 L172.982559,215.775 L174.670616,215.503125 L170.881611,210.959375" id="Fill-21" fill="#619210"></path>
                <path d="M213.027773,229.310417 C213.175829,228.813542 213.318673,228.315625 213.457346,227.815625 L199.881991,218.16875 L199.247014,219.517708 L213.027773,229.310417" id="Fill-22" fill="#619210"></path>
                <path d="M214.100664,225.263542 C214.218483,224.745833 214.333175,224.227083 214.440569,223.707292 L201.582559,214.569792 L200.945498,215.917708 L214.100664,225.263542" id="Fill-23" fill="#619210"></path>
                <path d="M160.884645,272.179167 L156.212512,268.859375 L156.058199,269.316667 C156.145782,269.83125 156.216682,270.290625 156.280284,270.70625 L158.938009,272.596875 C159.596967,272.461458 160.241327,272.321875 160.884645,272.179167" id="Fill-24" fill="#619210"></path>
                <path d="M215.546825,216.679167 C215.607299,216.117708 215.662559,215.55625 215.711564,214.995833 L204.982654,207.369792 L204.343507,208.719792 L215.546825,216.679167" id="Fill-25" fill="#619210"></path>
                <path d="M210.18654,236.905208 C210.391943,236.45 210.594218,235.99375 210.789194,235.532292 L196.483981,225.36875 L195.847962,226.716667 L210.18654,236.905208" id="Fill-26" fill="#619210"></path>
                <path d="M211.72237,233.188542 C211.899621,232.7125 212.070616,232.232292 212.237441,231.754167 L198.183507,221.767708 L197.546445,223.115625 L211.72237,233.188542" id="Fill-27" fill="#619210"></path>
                <path d="M214.941043,221.053125 C215.031754,220.513542 215.115166,219.973958 215.192322,219.434375 L203.281043,210.96875 L202.646066,212.316667 L214.941043,221.053125" id="Fill-28" fill="#619210"></path>
                <path d="M215.552038,197.452083 C215.487393,196.8 215.418578,196.15 215.34455,195.505208 L211.778673,192.971875 L211.143697,194.319792 L215.552038,197.452083" id="Fill-29" fill="#619210"></path>
                <path d="M214.919147,192.197917 C214.823223,191.516667 214.72,190.84375 214.611564,190.178125 L213.479242,189.371875 L212.84218,190.719792 L214.919147,192.197917" id="Fill-30" fill="#619210"></path>
                <path d="M208.424455,240.459375 C208.661137,240.025 208.887393,239.5875 209.111564,239.146875 L194.785498,228.967708 L194.149479,230.316667 L208.424455,240.459375" id="Fill-31" fill="#619210"></path>
                <path d="M215.914882,212.133333 C215.947204,211.551042 215.972227,210.96875 215.994123,210.3875 L206.68218,203.769792 L206.044076,205.11875 L215.914882,212.133333" id="Fill-32" fill="#619210"></path>
                <path d="M216.043128,207.415625 C216.043128,206.811458 216.036872,206.20625 216.028531,205.60625 L208.380664,200.169792 L207.745687,201.51875 L216.043128,207.415625" id="Fill-33" fill="#619210"></path>
                <path d="M215.925308,202.526042 C215.896114,201.895833 215.856493,201.269792 215.813744,200.644792 L210.08019,196.570833 L209.443128,197.91875 L215.925308,202.526042" id="Fill-34" fill="#619210"></path>
                <path d="M182.252796,255.5125 L189.5691,260.711458 C190.0091,260.422917 190.439716,260.130208 190.867204,259.834375 L182.887773,254.164583 L182.252796,255.5125" id="Fill-35" fill="#619210"></path>
                <path d="M177.927867,266.863542 C178.458578,266.639583 178.981991,266.4125 179.501232,266.180208 L161.433081,253.341667 L160.945118,254.794792 L177.927867,266.863542" id="Fill-36" fill="#619210"></path>
                <path d="M185.932322,262.935417 C186.401517,262.667708 186.865498,262.394792 187.319052,262.121875 L164.042844,245.582292 L163.555924,247.033333 L185.932322,262.935417" id="Fill-37" fill="#619210"></path>
                <path d="M182.051564,264.985417 C182.552038,264.739583 183.047299,264.490625 183.533175,264.236458 L162.737441,249.461458 L162.250521,250.913542 L182.051564,264.985417" id="Fill-38" fill="#619210"></path>
                <path d="M173.557062,268.565625 C174.120095,268.361458 174.675829,268.157292 175.223223,267.947917 L160.129763,257.219792 L159.639716,258.672917 L173.557062,268.565625" id="Fill-39" fill="#619210"></path>
                <path d="M164.065782,271.432292 C164.692417,271.276042 165.307583,271.115625 165.918578,270.95 L157.517915,264.980208 L157.029953,266.432292 L164.065782,271.432292" id="Fill-40" fill="#619210"></path>
                <path d="M168.938104,270.089583 C169.53346,269.909375 170.117346,269.725 170.697062,269.538542 L158.823318,261.1 L158.334313,262.554167 L168.938104,270.089583" id="Fill-41" fill="#619210"></path>
                <path d="M175.978104,251.055208 L170.164265,245.123958 L165.350332,241.701042 L164.861327,243.155208 L175.978104,251.055208" id="Fill-42" fill="#619210"></path>
                <path d="M206.424645,243.845833 C206.688436,243.43125 206.947014,243.014583 207.197251,242.595833 L193.084929,232.567708 L192.44891,233.915625 L206.424645,243.845833" id="Fill-43" fill="#619210"></path>
                <path d="M199.053081,253.032292 C199.405498,252.679167 199.747488,252.321875 200.085308,251.964583 L187.986351,243.366667 L187.352417,244.714583 L199.053081,253.032292" id="Fill-44" fill="#619210"></path>
                <path d="M204.19545,247.070833 C204.490521,246.678125 204.778294,246.282292 205.058768,245.884375 L191.386445,236.166667 L190.749384,237.515625 L204.19545,247.070833" id="Fill-45" fill="#619210"></path>
                <path d="M201.741043,250.134375 C202.063223,249.761458 202.385403,249.386458 202.694028,249.009375 L189.685877,239.766667 L189.049858,241.114583 L201.741043,250.134375" id="Fill-46" fill="#619210"></path>
                <path d="M196.127393,255.758333 C196.507962,255.427083 196.88019,255.090625 197.249289,254.754167 L186.286825,246.964583 L185.649763,248.313542 L196.127393,255.758333" id="Fill-47" fill="#619210"></path>
                <path d="M192.966066,258.31875 C193.375829,258.008333 193.777251,257.695833 194.175545,257.378125 L184.588341,250.564583 L183.95128,251.9125 L192.966066,258.31875" id="Fill-48" fill="#619210"></path>
                <path d="M207.180569,191.85 L160.030711,187.198958 L159.44891,176.73125 C159.44891,176.73125 199.03327,176.147917 207.180569,191.85" id="Fill-49" fill="#A8CD25"></path>
                <path d="M170.000569,176.586458 L174.872891,188.345833 L161.271469,187.736458 L156.402275,177.598958" id="Fill-50" fill="#619210"></path>
                <path d="M115.631374,205.763542 C115.631374,205.763542 114.176872,195.315625 114.520948,181.140625 L133.876777,169.488542 L147.785782,185.813542 L150.156777,212.188542 L165.723602,240.591667 L156.247962,270.479167 C154.705877,260.426042 147.037156,223.4875 115.631374,205.763542" id="Fill-51" fill="#619210"></path>
                <path d="M147.80872,224.417708 L155.38673,221.597917 L159.24455,229.304167 L147.80872,224.417708" id="Fill-52" fill="#000000"></path>
                <path d="M155.38673,221.597917 C155.387773,221.597917 161.717725,218.710417 168.148815,220.739583 C174.57782,222.766667 181.00891,218.710417 182.02654,216.003125 C182.02654,216.003125 174.814502,228.626042 159.24455,229.304167" id="Fill-53" fill="#FFFFFF"></path>
                <path d="M194.561327,190.342708 L172.561327,188.313542 C172.561327,188.313542 181.361327,180.197917 194.561327,190.342708" id="Fill-54" fill="#000000"></path>
                <path d="M138.948246,186.926042 L120.369194,192.239583 C120.369194,192.239583 125.959905,181.451042 138.744929,186.520833" id="Fill-55" fill="#000000"></path>
                <path d="M150.830332,169.920833 L153.876967,168.56875 L168.769194,205.426042 L143.385782,220.642708" id="Fill-56" fill="#A8CD25"></path>
                <path d="M146.431374,210.497917 C146.431374,210.497917 153.539147,205.086458 163.016872,209.822917" id="Fill-57" fill="#000000"></path>
                <path d="M206.34019,160.789583 L194.493555,165.863542 L203.293555,153.351042 L193.479052,159.438542 L199.908057,143.545833 L190.094597,148.95625 C190.094597,148.95625 202.279052,134.076042 189.754692,122.91875 L208.710142,106.686458 C208.710142,106.686458 244.587867,126.975 229.69564,174.317708 L215.478009,188.85625 L206.34019,160.789583" id="Fill-58" fill="#619210"></path>
                <path d="M206.34019,160.789583 L194.493555,165.863542 L203.293555,153.351042 L193.479052,159.438542 L199.908057,143.545833 L190.094597,148.95625 C190.094597,148.95625 202.279052,134.076042 189.754692,122.91875 L208.710142,106.686458 C208.710142,106.686458 244.587867,126.975 229.69564,174.317708 L215.478009,188.85625 L206.34019,160.789583" id="Fill-59" fill="#619210"></path>
                <path d="M229.69564,174.317708 C233.225024,163.101042 233.881896,153.421875 232.86218,145.154167 L206.34019,160.789583 L215.478009,188.85625 L229.69564,174.317708" id="Fill-60" fill="#000000"></path>
                <path d="M206.003412,104.658333 L188.741232,120.551042 C188.741232,120.551042 129.5091,131.709375 125.446919,86.3979167 L133.568152,94.5114583 L131.878009,84.3697917 L206.003412,104.658333" id="Fill-61" fill="#619210"></path>
                <path d="M145.841232,98.2427083 C141.831185,93.7614583 139.002464,89.284375 137.117346,85.8041667 L134.707773,85.14375 C140.098294,95.7864583 155.656777,118.966667 188.917441,118.996875 C189.425213,118.996875 189.954882,118.96875 190.472038,118.959375 L192.504171,117.086458 C191.28218,117.144792 190.087299,117.176042 188.917441,117.176042 C167.973649,117.167708 154.340948,107.721875 145.841232,98.2427083" id="Fill-62" fill="#000000"></path>
                <path d="M181.778389,208.822917 C180.97763,208.294792 180.495924,208.060417 180.495924,208.060417 L180.491754,208.060417 L180.495924,208.060417 L181.415545,206.169792 C181.503128,206.226042 190.850521,210.715625 191.48237,221.2625 L189.380379,221.378125 C189.013365,214.482292 184.195261,210.429167 181.778389,208.822917" id="Fill-63" fill="#A8CD25"></path>
                <path d="M186.878009,205.496875 C186.130427,205.06875 185.696682,204.9 185.696682,204.9 L186.472417,202.946875 C186.583981,202.994792 195.265118,206.430208 196.943791,216.607292 L194.864739,216.941667 C193.777251,210.203125 189.138483,206.794792 186.878009,205.496875" id="Fill-64" fill="#A8CD25"></path>
                <path d="M226.798104,265.80625 L192.978578,314.653125 L180.346825,278.01875 L236.576114,302.034375 L226.798104,265.80625" id="Fill-65" fill="#000000"></path>
                <path d="M83.3695735,390.640625 L37.7920379,422.516667 L67.7172512,268.35625 L88.2617062,269.333333 L83.3695735,390.640625" id="Fill-66" fill="#619210"></path>
                <path d="M328.252512,139.479167 L369.405024,139.479167 L369.405024,179.779167 L328.252512,179.779167 L328.252512,139.479167 Z" id="Fill-67" fill="#FFFFFF"></path>
                <path d="M342.548341,152.042708 L343.949668,152.01875 L344.3,173.742708 L342.898673,173.766667 L342.548341,152.042708" id="Fill-68" fill="#000000"></path>
                <path d="M347.458199,172.341667 L347.808531,151.669792 L349.211943,151.691667 L348.859526,172.366667 L347.458199,172.341667" id="Fill-69" fill="#000000"></path>
                <path d="M355.875545,151.69375 L357.278957,151.669792 L357.628246,173.391667 L356.223791,173.415625 L355.875545,151.69375" id="Fill-70" fill="#000000"></path>
                <path d="M360.787488,171.991667 L361.135735,151.320833 L362.536019,151.340625 L362.187773,172.014583 L360.787488,171.991667" id="Fill-71" fill="#000000"></path>
                <path d="M315.470616,162.915625 L354.833934,150.928125 L343.069668,112.379167 L303.705308,124.369792 L315.470616,162.915625" id="Fill-72" fill="#CEE7A2"></path>
                <path d="M287.762085,96.1583333 L327.126445,84.1677083 L315.36218,45.6208333 L275.999905,57.609375 L287.762085,96.1583333" id="Fill-73" fill="#619210"></path>
                <path d="M260.340284,55.5260417 L278.670142,18.715625 L242.553649,0.767708333 L224.223791,37.578125 L260.340284,55.5260417" id="Fill-74" fill="#FFFFFF"></path>
                <path d="M202.028815,41.4479167 L188.042654,2.77916667 L150.105687,16.4739583 L164.08872,55.140625 L202.028815,41.4479167" id="Fill-75" fill="#CEE7A2"></path>
                <path d="M143.76218,42.6697917 L129.778104,4 L91.8390521,17.6947917 L105.823128,56.3614583 L143.76218,42.6697917" id="Fill-76" fill="#FFFFFF"></path>
                <path d="M92.7597156,68.3729167 L69.0779147,34.746875 L36.0883412,57.9375 L59.7690995,91.5614583 L92.7597156,68.3729167" id="Fill-77" fill="#619210"></path>
                <path d="M82.8096682,85.1864583 L43.590237,72.73125 L31.3692891,111.135417 L70.5845498,123.592708 L82.8096682,85.1864583" id="Fill-78" fill="#CEE7A2"></path>
                <path d="M53.9886256,136.601042 L12.844455,135.852083 L12.1072986,176.144792 L53.2525118,176.894792 L53.9886256,136.601042" id="Fill-79" fill="#FFFFFF"></path>
                <path d="M60.1017062,183.820833 L18.9554502,183.072917 L18.2182938,223.364583 L59.3645498,224.113542 L60.1017062,183.820833" id="Fill-80" fill="#CEE7A2"></path>
                <path d="M329.845687,283.244792 L371.773934,366.083333 L439.922844,403.363542 C416.632038,324.185417 366.948531,316.421875 334.883791,258.282292 L361.66436,251.016667 L386.519147,196.0625 L379.998389,193.211458 L359.625972,240.838542 L355.553365,188.327083 L344.550237,189.954167 L351.883223,242.46875 L350.494408,241.8125 L342.921611,221.298958 L322.558578,235.420833 L329.572512,248.033333 L316.246351,257.84375 L329.845687,283.244792" id="Fill-81" fill="#CEE7A2"></path>
                <path d="M334.958863,235.052083 L327.829194,239.011458 L328.513175,240.238542 L334.001706,237.185417 L335.099621,242.117708 L328.73109,246.521875 L329.416114,247.753125 L336.6709,242.732292 L334.958863,235.052083" id="Fill-82" fill="#A8CD25"></path>
                <path d="M336.98891,225.4125 L345.748246,248.978125 L347.060948,248.489583 L338.176493,224.589583 L336.98891,225.4125" id="Fill-83" fill="#A8CD25"></path>
                <path d="M29.8418009,269.758333 C29.8418009,269.758333 59.3937441,258.273958 70.1737441,274.232292 C80.9579147,290.190625 62.1067299,259.480208 62.1067299,259.480208 C62.1067299,259.480208 37.0204739,256.708333 27.036019,265.085417" id="Fill-84" fill="#000000"></path>
                <path d="M63.0419905,294.984375 L66.3023697,270.457292 L0.851848341,226.3125 L5.54900474,220.89375 L48.7378199,248.166667 L22.2544076,216.008333 L30.4017062,213.972917 L55.6641706,247.352083 L42.2191469,213.972917 L46.7015166,213.159375 L60.1486256,244.504167 L63.4079621,218.858333 L69.1123223,221.707292 L65.8519431,246.945833 L88.2617062,269.333333" id="Fill-85" fill="#619210"></path>
                <path id="Fill-86" fill="#CEE7A2"></path>
                <path d="M54.0835071,58.2447917 L53.2420853,63.5322917 L53.2420853,63.5364583 L51.8543128,63.3145833 L53.4099526,53.590625 L56.9654028,61.0104167 L58.8265403,55.8541667 L60.6292891,58.6333333 L62.5446445,55.3552083 L64.9969668,57.0864583 L66.7726066,52.6572917 L68.0759242,53.1760417 L65.644455,59.25625 L62.9867299,57.38125 L60.6939336,61.309375 L59.1872986,58.984375 L57.1447393,64.6427083 L54.0835071,58.2447917" id="Fill-87" fill="#000000"></path>
                <path d="M58.6148815,69.45 L74.9939336,58.3416667 L75.7842654,59.5010417 L59.403128,70.609375 L58.6148815,69.45" id="Fill-88" fill="#000000"></path>
                <path d="M45.8642654,108.115625 L52.3245498,85.5989583 L53.6727014,85.9854167 L47.2124171,108.504167 L45.8642654,108.115625" id="Fill-89" fill="#000000"></path>
                <path d="M51.8720379,107.66875 L57.883981,86.3541667 L59.234218,86.7322917 L53.2233175,108.05 L51.8720379,107.66875" id="Fill-90" fill="#000000"></path>
                <path d="M58.6305213,111.434375 L64.7894787,88.015625 L66.1490995,88.3739583 L59.9870142,111.792708 L58.6305213,111.434375" id="Fill-91" fill="#000000"></path>
                <path d="M19.8636019,151.383333 L27.2268246,142.977083 L28.2840758,143.9 L20.9218957,152.310417 L19.8636019,151.383333" id="Fill-92" fill="#000000"></path>
                <path d="M25.2541232,168.427083 L26.9077725,154.317708 L28.3028436,154.480208 L26.647109,168.591667 L25.2541232,168.427083" id="Fill-93" fill="#000000"></path>
                <path d="M31.2618957,166.992708 L31.5611374,153.93125 L32.9614218,153.964583 L32.6600948,167.025 L31.2618957,166.992708" id="Fill-94" fill="#000000"></path>
                <path d="M26.6794313,191.682292 L50.4227488,190.930208 L50.4665403,192.33125 L26.7263507,193.079167 L26.6794313,191.682292" id="Fill-95" fill="#000000"></path>
                <path d="M47.4063507,193.975 L50.1641706,191.3375 L47.408436,189.844792 L48.0746919,188.610417 L52.5299526,191.017708 L48.376019,194.989583 L47.4063507,193.975 L47.4063507,193.975 Z M47.4063507,189.84375 L47.408436,189.844792 L47.4063507,189.846875 L47.4063507,189.84375 L47.4063507,189.84375 Z" id="Fill-96" fill="#000000"></path>
                <path d="M33,203.459375 L34.2324171,204.122917 L32.9635071,206.473958 L54.8842654,199.223958 L55.3221801,200.552083 L30.0576303,208.908333 L33,203.459375" id="Fill-97" fill="#000000"></path>
                <path d="M31.0804739,208.983333 L31.3411374,207.607292 L36.9005687,208.65625 L36.6399052,210.035417 L31.0804739,208.983333" id="Fill-98" fill="#000000"></path>
                <path d="M103.29782,31.6479167 L117.223507,21.1177083 L118.326635,28.903125 L124.259336,24.4375 L129.731185,25.8052083 L131.207583,23.7427083 L132.348246,24.5541667 L130.315071,27.396875 L124.566919,25.959375 L117.270427,31.4541667 L116.168341,23.6729167 L104.143412,32.7645833 L104.143412,32.7666667 L103.29782,31.6479167" id="Fill-99" fill="#A8CD25"></path>
                <path d="M110.818483,37.4083333 L111.356493,36.115625 L115.164265,37.6979167 L120.043886,33.521875 L127.723033,35.9645833 L133.384645,30.3083333 L133.38673,30.3104167 L134.378294,31.3 L128.111943,37.55625 L120.365024,35.09375 L115.422844,39.3260417 L110.818483,37.4083333" id="Fill-100" fill="#A8CD25"></path>
                <path id="Fill-101" fill="#000000"></path>
                <path d="M166.894502,17.0447917 L168.203033,16.5364583 L176.267962,37.2072917 L174.960474,37.7145833 L166.894502,17.0447917" id="Fill-102" fill="#000000"></path>
                <path d="M164.798768,21.2697917 L166.087488,20.7166667 L175.557915,42.790625 L174.270237,43.3416667 L164.798768,21.2697917" id="Fill-103" fill="#000000"></path>
                <path d="M177.430521,21.28125 L178.708815,20.7083333 L187.478578,40.3291667 L186.197156,40.9010417 L177.430521,21.28125" id="Fill-104" fill="#000000"></path>
                <path d="M242.310711,14.975 L242.889384,13.6989583 L266.035261,24.209375 L265.456588,25.4864583 L242.310711,14.975" id="Fill-105" fill="#619210"></path>
                <path d="M239.883412,22.3447917 L240.401611,21.0447917 L262.496493,29.8041667 L261.979336,31.1041667 L239.883412,22.3447917" id="Fill-106" fill="#619210"></path>
                <path d="M237.063033,28.996875 L237.611469,27.7083333 L261.460095,37.8708333 L260.911659,39.1572917 L237.063033,28.996875" id="Fill-107" fill="#619210"></path>
                <path d="M314.956588,134.90625 L342.312701,125.096875 L342.782938,126.4125 L315.429953,136.222917 L314.956588,134.90625" id="Fill-108" fill="#000000"></path>
                <path d="M317.439147,141.202083 L323.049668,139.452083 L323.46673,140.788542 L317.855166,142.5375 L317.439147,141.202083" id="Fill-109" fill="#000000"></path>
                <path d="M318.936398,146.435417 L325.245498,145.38125 L325.479052,146.767708 L319.167867,147.81875 L318.936398,146.435417" id="Fill-110" fill="#000000"></path>
                <path d="M319.490047,154.186458 L339.480853,146.127083 L340.005308,147.428125 L320.01346,155.483333 L319.490047,154.186458" id="Fill-111" fill="#000000"></path>
                <path d="M114.535545,180.613542 C115.09128,160.129167 119.441232,132.139583 137.202844,116.539583 L158.617915,180.064583 L143.385782,220.642708 L136.615829,198.325 L146.431374,184.460417 L133.231374,172.963542 L114.535545,180.613542" id="Fill-112" fill="#FFFFFF"></path>
                <path d="M207.180569,191.85 C207.180569,191.85 188.267867,172.732292 158.617915,180.064583 L155.590047,172.935417 C155.590047,172.935417 182.58436,169.285417 209.169953,186.926042" id="Fill-113" fill="#619210"></path>
                <path d="M207.180569,191.85 C207.180569,191.85 188.267867,172.732292 158.617915,180.064583 L155.590047,172.935417 C155.590047,172.935417 182.58436,169.285417 209.169953,186.926042" id="Fill-114" fill="#619210"></path>
                <path d="M138.744929,178.004167 L114.614787,183.108333 L114.520948,181.140625 L131.878009,170.595833" id="Fill-115" fill="#000000"></path>
                <path d="M216.897062,181.444792 C214.109005,190.344792 215.393555,198.909375 219.769573,200.577083 C224.145592,202.239583 229.950047,196.377083 232.742275,187.476042 C235.528246,178.576042 234.241611,170.013542 229.866635,168.345833 C225.490616,166.682292 219.684076,172.545833 216.897062,181.444792" id="Fill-116" fill="#FFFFFF"></path>
                <path d="M194.153649,115.566667 L195.941801,113.921875 C170.283128,111.61875 159.116303,98.3364583 154.701706,90.6177083 L152.246256,89.9447917 C156.152038,97.5177083 167.241706,112.628125 194.153649,115.566667" id="Fill-117" fill="#000000"></path>
                <path d="M199.352322,110.780208 L201.077915,109.192708 C186.470332,106.963542 177.106256,101.01875 171.227773,95.140625 L167.888152,94.2260417 C173.655071,100.8125 183.398673,108.027083 199.352322,110.780208" id="Fill-118" fill="#000000"></path>
                <path d="M197.845687,121.646875 C199.174028,124.11875 200.488815,127.578125 200.488815,131.530208 C200.478389,136.460417 198.489005,142.2125 191.67109,148.071875 L191.679431,148.08125 L197.187773,145.045833 C200.975735,140.352083 202.322844,135.675 202.31346,131.530208 C202.293649,123.917708 197.982275,118.227083 196.847867,116.846875 L195.463223,118.03125 C195.899052,118.559375 196.862464,119.815625 197.845687,121.646875" id="Fill-119" fill="#000000"></path>
                <path d="M202.716967,111.817708 L201.334408,113.001042 C201.552322,113.248958 201.851564,113.602083 202.218578,114.066667 C204.543697,117.004167 209.190806,124.023958 209.176209,132.663542 C209.162654,140.133333 205.767773,148.934375 194.149479,157.782292 L193.479052,159.438542 L199.471185,155.719792 C208.122085,147.75625 211.01545,139.6875 210.998768,132.663542 C210.977915,121.915625 204.490521,113.841667 202.716967,111.817708" id="Fill-120" fill="#000000"></path>
                <path d="M216.361137,112.638542 C216.876209,113.463542 217.773934,115.026042 218.694597,117.220833 C220.10218,120.5625 221.50455,125.282292 221.50455,130.7625 C221.48891,139.334375 218.128436,149.791667 205.757346,160.088542 L206.34019,160.789583 L206.34019,160.790625 L206.921991,161.491667 C219.653839,150.930208 223.341706,139.823958 223.328152,130.7625 C223.321896,125.298958 222.014408,120.605208 220.630806,117.146875 C219.17109,115.419792 217.723886,113.923958 216.361137,112.638542" id="Fill-121" fill="#000000"></path>
                <path d="M167.991374,178.561458 L170.063128,173.05 C169.547014,172.997917 169.040284,172.95 168.547109,172.908333 L166.37109,178.7 C166.916398,178.641667 167.454408,178.601042 167.991374,178.561458" id="Fill-122" fill="#000000"></path>
                <path d="M193.997251,183.2 C194.452891,183.407292 194.892891,183.619792 195.32872,183.834375 L196.730047,180.1 C196.277536,179.897917 195.830237,179.7125 195.37981,179.521875 L193.997251,183.2" id="Fill-123" fill="#000000"></path>
                <path d="M161.93564,179.355208 C162.49763,179.248958 163.057536,179.151042 163.611185,179.064583 L165.989479,172.736458 C165.457725,172.707292 164.944739,172.686458 164.450521,172.669792 L161.93564,179.355208" id="Fill-124" fill="#000000"></path>
                <path d="M197.522464,184.972917 C197.965592,185.21875 198.397251,185.4625 198.815355,185.705208 L200.285498,181.790625 C199.845498,181.569792 199.405498,181.344792 198.963412,181.134375 L197.522464,184.972917" id="Fill-125" fill="#000000"></path>
                <path d="M200.941327,187.011458 C201.384455,187.3 201.798389,187.579167 202.19564,187.853125 L203.779431,183.639583 C203.344645,183.395833 202.9109,183.161458 202.478199,182.927083 L200.941327,187.011458" id="Fill-126" fill="#000000"></path>
                <path d="M160.271564,172.639583 L158.013175,178.644792 L158.617915,180.064583 C158.775355,180.026042 158.929668,179.997917 159.088152,179.960417 L161.847014,172.623958 C161.29128,172.623958 160.760569,172.629167 160.271564,172.639583" id="Fill-127" fill="#000000"></path>
                <path d="M204.251754,189.353125 C204.704265,189.702083 205.105687,190.026042 205.458104,190.314583 L207.203507,185.669792 C206.778104,185.404167 206.351659,185.145833 205.928341,184.890625 L204.251754,189.353125" id="Fill-128" fill="#000000"></path>
                <path d="M182.818957,179.510417 C183.310047,179.614583 183.78654,179.728125 184.263033,179.841667 L185.68,176.076042 C185.201422,175.9375 184.731185,175.805208 184.260948,175.677083 L182.818957,179.510417" id="Fill-129" fill="#000000"></path>
                <path d="M174.830142,178.473958 C175.347299,178.501042 175.860284,178.527083 176.365972,178.56875 L177.998768,174.219792 C177.505592,174.123958 177.015545,174.030208 176.534882,173.945833 L174.830142,178.473958" id="Fill-130" fill="#000000"></path>
                <path d="M178.883981,178.839583 C179.387583,178.904167 179.880758,178.982292 180.36872,179.060417 L181.872227,175.065625 C181.389479,174.95 180.90673,174.832292 180.430237,174.725 L178.883981,178.839583" id="Fill-131" fill="#000000"></path>
                <path d="M170.665782,178.423958 C171.194408,178.409375 171.719905,178.398958 172.238104,178.4 L174.063791,173.545833 C173.561232,173.471875 173.062844,173.402083 172.575924,173.338542 L170.665782,178.423958" id="Fill-132" fill="#000000"></path>
                <path d="M155.793365,173.4125 L156.62436,175.371875 L157.610711,172.754167 C156.868341,172.802083 156.327204,172.854167 155.991469,172.889583 L155.793365,173.4125" id="Fill-133" fill="#000000"></path>
                <path d="M190.371943,181.702083 C190.838009,181.876042 191.292607,182.054167 191.743033,182.235417 L193.10891,178.597917 C192.654313,178.41875 192.194502,178.236458 191.739905,178.06875 L190.371943,181.702083" id="Fill-134" fill="#000000"></path>
                <path d="M186.647583,180.470833 C187.124076,180.609375 187.590142,180.754167 188.053081,180.903125 L189.427299,177.246875 C188.957062,177.088542 188.494123,176.939583 188.028057,176.791667 L186.647583,180.470833" id="Fill-135" fill="#000000"></path>
            </g>
        </g>
    </g>
</svg>