<?xml version="1.0" encoding="UTF-8" standalone="no"?>
<svg width="266px" height="450px" viewBox="0 0 266 450" version="1.1" xmlns="http://www.w3.org/2000/svg" xmlns:xlink="http://www.w3.org/1999/xlink">
    <defs></defs>
    <g id="helfigur" stroke="none" stroke-width="1" fill="none" fill-rule="evenodd">
        <g id="hauken">
            <g id="Imported-Layers" transform="translate(0.000000, 2.000000)">
                <path d="M227.046,123.446 L201.292,225.465 L155.153,256.342 L135.228,206.588 L163.261,134.483" id="Fill-1" fill="#619210"></path>
                <path d="M109.944,280.574 L0.511,411.65 C0.511,411.65 -6.103,214.861 135.228,206.588" id="Fill-2" fill="#000000"></path>
                <path d="M76.855,317.859 C74.042,322.494 91.768,304.344 74.059,288.498 C58.077,274.199 36.308,271.254 36.308,271.254 L45.629,264.264 L47.027,290.363" id="Fill-3" fill="#619210"></path>
                <path d="M251.959,352.539 C261.912,307.398 256.67,254.591 206.373,209.775 L150.115,230.707 L135.578,204.607 L47.027,446.025 L169.69,447.891 L211.169,336.035 L251.959,352.539" id="Fill-4" fill="#000000"></path>
                <path d="M114.097,304.717 C116.149,306.211 118.87,305.972 120.175,304.178 L122.169,301.445 C123.476,299.652 122.871,296.987 120.821,295.493 L67.823,256.862 C65.773,255.365 63.052,255.607 61.745,257.402 L59.753,260.135 C58.448,261.93 59.049,264.591 61.1,266.087 L114.097,304.717" id="Fill-5" fill="#FFFFFF"></path>
                <path d="M252.8,348.506 L211.169,336.035 L192.526,387.303 L225.468,419.718 C236.055,400.898 247.353,376.014 252.8,348.506" id="Fill-6" fill="#619210"></path>
                <path d="M233.671,404.042 L171.795,358.455 L163.631,372.854 L208.151,446.925 C214.447,438.178 224.433,423.108 233.671,404.042" id="Fill-7" fill="#CEE7A2"></path>
                <path d="M153.298,316.899 C164.145,351.942 148.54,349.493 163.981,373.903 L194.499,336.714 L186.04,315.469 L163.582,309.662" id="Fill-8" fill="#A8CD25"></path>
                <path d="M119.667,274.561 L125.81,294.487 L127.595,295.618 C123.708,267.094 107.557,246.508 107.557,246.508 C104.322,268.103 114.952,287.602 114.952,287.602 L118.592,289.91 L114.201,274.739 L119.667,274.561" id="Fill-9" fill="#A8CD25"></path>
                <path d="M118.592,289.91 L119.225,292.096 L126.439,296.525 L125.81,294.487 L118.592,289.91" id="Fill-10" fill="#000000"></path>
                <path d="M113.223,268.967 C113.099,269.994 113.83,270.926 114.856,271.05 C115.882,271.172 116.813,270.441 116.938,269.416 C117.062,268.391 116.33,267.458 115.304,267.334 C114.278,267.209 113.346,267.941 113.223,268.967" id="Fill-11" fill="#000000"></path>
                <path d="M130.565,300.152 L123.648,232.48 L130.259,260.511 L137.502,235.361 L132.639,265.32 L141.343,279.157 L138.959,280.875 L130.602,268.78 L132.61,299.221" id="Fill-12" fill="#FFFFFF"></path>
                <path d="M140.767,310.524 L97.87,347.195 C97.87,347.195 108.818,328.525 138.512,306.764" id="Fill-13" fill="#CEE7A2"></path>
                <path d="M135.031,309.505 L113.993,360.641 C113.993,360.64 127.357,350.67 128.097,340.662 C128.836,330.655 138.025,318.72 138.025,318.72" id="Fill-14" fill="#FFFFFF"></path>
                <path d="M135.921,313.725 L131.606,353.412 L127.733,350.661 L127.221,362.886 L129.119,356.066 L133.716,359.397 L139.784,322.428" id="Fill-15" fill="#CEE7A2"></path>
                <path d="M145.921,344.178 L139.514,313.093 L138.365,314.899 L143.884,344.354 C142.091,344.941 140.786,346.61 140.786,348.602 C140.786,351.08 142.796,353.091 145.275,353.091 C147.753,353.091 149.764,351.08 149.764,348.602 C149.764,346.345 148.092,344.493 145.921,344.178" id="Fill-16" fill="#A8CD25"></path>
                <path d="M156.008,335.789 C160.306,338.698 166.147,337.572 169.057,333.274 C171.963,328.979 170.839,323.135 166.539,320.227 L121.411,289.685 C117.114,286.775 111.274,287.901 108.366,292.198 C105.455,296.496 106.582,302.338 110.879,305.247 L156.008,335.789" id="Fill-17" fill="#619210"></path>
                <path d="M143.177,303.736 L162.717,258.004 C162.717,258.004 166.46,273.387 155.65,292.51 C144.84,311.636 144.424,307.686 144.424,307.686" id="Fill-18" fill="#FFFFFF"></path>
                <path d="M146.087,302.489 L179.556,276.09 L177.685,285.028 L175.815,283.988 L175.191,287.523 L173.112,286.482 L172.281,289.602 L169.785,288.355 L168.746,293.343 L166.044,292.927 L164.796,297.084 L161.471,296.461 L160.224,300.41 L156.898,300.203 L154.819,304.984 L148.375,306.023 L146.503,309.142" id="Fill-19" fill="#FFFFFF"></path>
                <path d="M197.031,323.187 C197.031,320.019 194.48,317.452 191.321,317.414 C194.14,316.727 196.24,314.203 196.24,311.173 C196.24,308.26 194.294,305.826 191.639,305.031 L196.241,299.545 C196.241,299.545 169.222,283.978 138.805,304.374 C138.805,304.374 142.983,311.269 142.741,310.816 C166.276,299.418 182.509,305.228 185.434,306.462 C185.365,306.523 185.29,306.575 185.226,306.641 C161.428,305.297 144.217,316.914 144.217,316.914 L153.528,333.271 L195.167,336.045 L193.377,329.245 L193.639,328.439 C195.636,327.528 197.031,325.525 197.031,323.187" id="Fill-20" fill="#CEE7A2"></path>
                <path d="M231.923,24.463 C257.015,44.791 259.935,82.776 238.444,109.305 C216.953,135.831 179.189,140.854 154.097,120.527 C129.005,100.197 141.969,121.105 137.199,87.301 C125.322,3.133 206.832,4.135 231.923,24.463" id="Fill-21" fill="#CEE7A2"></path>
                <path d="M179.03,50.256 L180.158,48.486 C171.316,42.854 166.718,35.135 164.314,28.787 C163.112,25.618 162.466,22.797 162.12,20.779 C162.107,20.705 162.098,20.642 162.085,20.57 C161.435,20.933 160.792,21.312 160.156,21.703 C161.378,28.314 165.456,41.579 179.03,50.256" id="Fill-22" fill="#619210"></path>
                <path d="M136.564,61.777 L149.507,67.106 L146.612,71.086 L136.12,67.589 C136.089,68.312 136.062,69.038 136.049,69.777 L147.407,73.562 L152.773,66.181 L136.829,59.616 C136.727,60.324 136.647,61.051 136.564,61.777" id="Fill-23" fill="#A8CD25"></path>
                <path d="M142.362,80.707 L136.204,77.226 C136.251,78.053 136.294,78.879 136.362,79.725 L141.329,82.534 L142.362,80.707" id="Fill-24" fill="#A8CD25"></path>
                <path d="M144.893,36.72 L167.879,44.932 L165.345,47.362 L143.333,39.359 C142.995,39.973 142.665,40.596 142.349,41.232 L165.852,49.778 L171.786,44.1 L146.086,34.92 C145.678,35.506 145.282,36.109 144.893,36.72" id="Fill-25" fill="#A8CD25"></path>
                <path d="M164.483,55.396 L140.041,46.635 C139.802,47.287 139.566,47.941 139.347,48.614 L160.518,56.204 L155.551,60.787 L137.835,54.145 C137.681,54.826 137.538,55.522 137.403,56.225 L156.024,63.207 L164.483,55.396" id="Fill-26" fill="#619210"></path>
                <path d="M231.923,24.463 C224.258,18.254 215.412,14.422 206.208,12.834 L197.097,58.384 L228.623,119.082 C232.155,116.238 235.461,112.986 238.444,109.305 C259.935,82.776 257.015,44.791 231.923,24.463" id="Fill-27" fill="#619210"></path>
                <path d="M230.85,114.168 C230.85,114.168 241.372,95.348 256.347,99.479 C248.601,111.355 243.438,138.207 222.266,134.075" id="Fill-28" fill="#FFFFFF"></path>
                <path d="M242.784,36.247 L196.545,50.973 L197.182,52.974 L243.987,38.066 C243.6,37.451 243.195,36.848 242.784,36.247" id="Fill-29" fill="#A8CD25"></path>
                <path d="M236.273,28.385 L181.951,46.381 L185.552,47.5 L237.865,30.06 C237.344,29.495 236.82,28.932 236.273,28.385" id="Fill-30" fill="#A8CD25"></path>
                <path d="M245.383,40.405 L201.409,55.879 L202.106,57.855 L246.393,42.274 C246.069,41.644 245.731,41.022 245.383,40.405" id="Fill-31" fill="#A8CD25"></path>
                <path d="M164.24,41.489 L229.111,59.417 L232.817,108.836 C218.542,182.261 173.909,184.439 173.909,184.439 L168.913,180.193 L161.984,170.436 L162.376,165.926 C162.376,165.926 104.585,106.97 164.24,41.489" id="Fill-32" fill="#FFF100"></path>
                <path d="M164.24,41.489 L229.111,59.417 L232.817,108.836 C218.542,182.261 173.909,184.439 173.909,184.439 L168.913,180.193 L161.984,170.436 L162.376,165.926 C162.376,165.926 104.585,106.97 164.24,41.489" id="Fill-33" fill="#CEE7A2"></path>
                <path d="M204.375,90.318 L194.918,108.812 L185.797,96.979 L188.361,91.377" id="Fill-34" fill="#A8CD25"></path>
                <path d="M143.267,89.959 L125.324,78.308 C125.324,78.308 119.964,105.806 138.84,114.894" id="Fill-35" fill="#000000"></path>
                <path d="M167.103,60.379 L148.12,63.645 C125.695,104.135 143.098,139.494 154.499,156.01 L185.679,81.803 L167.103,60.379" id="Fill-36" fill="#619210"></path>
                <path d="M169.385,98.299 C169.773,98.299 170.172,98.282 170.589,98.257 L170.589,98.254 L170.774,101.018 C170.303,101.049 169.847,101.065 169.402,101.068 L169.385,98.299 L169.385,98.299 Z M166.639,100.896 L167.01,98.152 C167.386,98.205 167.78,98.242 168.189,98.268 L168.022,101.031 C167.543,101.003 167.083,100.958 166.639,100.896 L166.639,100.896 Z M171.797,98.141 C172.188,98.095 172.591,98.035 173.007,97.964 L173.472,100.691 C173.017,100.771 172.568,100.836 172.131,100.889 L171.797,98.141 L171.797,98.141 Z M163.895,100.289 L164.729,97.647 C165.083,97.762 165.459,97.862 165.853,97.948 L165.258,100.651 C164.784,100.547 164.331,100.424 163.895,100.289 L163.895,100.289 Z M174.211,97.729 C174.603,97.645 175.002,97.551 175.411,97.443 L175.414,97.443 L176.106,100.125 C175.663,100.237 175.227,100.343 174.799,100.434 L174.211,97.729 L174.211,97.729 Z M161.279,99.177 L162.608,96.749 C162.931,96.928 163.274,97.096 163.642,97.251 L162.563,99.799 C162.109,99.605 161.681,99.398 161.279,99.177 L161.279,99.177 Z M176.607,97.111 C176.992,96.996 177.389,96.869 177.791,96.734 L177.791,96.736 L178.67,99.362 C178.237,99.508 177.815,99.641 177.397,99.764 L176.607,97.111 L176.607,97.111 Z M158.923,97.545 L160.731,95.45 C161.006,95.689 161.307,95.92 161.635,96.147 L160.06,98.426 C159.648,98.141 159.269,97.845 158.923,97.545 L158.923,97.545 Z M156.962,95.447 L159.178,93.787 C159.385,94.064 159.628,94.359 159.909,94.66 L157.885,96.55 C157.534,96.174 157.225,95.799 156.962,95.447 L156.962,95.447 Z M155.518,92.936 L158.121,91.989 C158.124,91.989 158.135,92.033 158.203,92.182 C158.274,92.334 158.387,92.564 158.552,92.846 L156.16,94.24 C155.729,93.503 155.542,92.998 155.518,92.936 L155.518,92.936 Z" id="Fill-37" fill="#000000"></path>
                <path d="M148.495,64.79 L181.992,89.639 L164.939,131.436 C172.023,137.703 179.381,135.133 179.381,135.133 L198.245,50.887 L164.24,41.489 C157.144,49.278 151.726,56.973 147.659,64.489 L148.495,64.79" id="Fill-38" fill="#FFFFFF"></path>
                <path d="M155.562,123.38 C154.224,128.456 160.376,134.481 169.302,136.834 C178.23,139.189 186.552,136.979 187.89,131.904 C189.229,126.83 183.077,120.805 174.15,118.452 C165.223,116.099 156.901,118.305 155.562,123.38" id="Fill-39" fill="#FFFFFF"></path>
                <path d="M163.261,134.483 L170.066,117.691 C162.813,116.865 156.693,119.093 155.562,123.38 C154.555,127.201 157.793,131.559 163.261,134.483" id="Fill-40" fill="#A8CD25"></path>
                <path d="M156.931,129.186 C158.293,131.148 160.489,133.001 163.261,134.483 L164.867,130.519 C164.208,128.745 162.515,127.476 160.512,127.476 C159.064,127.476 157.785,128.15 156.931,129.186" id="Fill-41" fill="#000000"></path>
                <path d="M155.455,148.411 L180.572,178.686 L157.531,180.418 L155.051,152.914" id="Fill-42" fill="#619210"></path>
                <path d="M160.866,173.554 C161.46,180.16 167.301,185.034 173.909,184.439 C180.517,183.844 185.392,178.002 184.795,171.397 C184.199,164.787 178.359,159.913 171.752,160.51 C165.145,161.104 160.269,166.943 160.866,173.554" id="Fill-43" fill="#CEE7A2"></path>
                <path d="M168.896,158.849 C167.845,158.627 165.172,160.334 165.172,160.334 L155.69,150.781 C155.431,151.471 155.205,152.177 155.051,152.914 C153.415,160.662 158.337,167.982 166.044,169.262 C173.751,170.543 181.326,165.299 182.96,157.55 C182.998,157.37 183.014,157.193 183.046,157.016 C179.677,157.533 169.766,159.032 168.896,158.849" id="Fill-44" fill="#A8CD25"></path>
                <path d="M166.693,175.647 C166.832,177.185 168.192,178.318 169.73,178.18 C171.268,178.042 172.402,176.682 172.264,175.144 C172.126,173.606 170.766,172.472 169.228,172.609 C167.69,172.75 166.555,174.109 166.693,175.647" id="Fill-45" fill="#A8CD25"></path>
                <path d="M204.399,113.442 L204.734,110.196 C205.172,110.242 205.627,110.267 206.101,110.273 L206.062,113.539 C205.49,113.531 204.936,113.5 204.399,113.442 L204.399,113.442 Z M207.485,110.233 C207.932,110.198 208.396,110.15 208.874,110.079 L208.876,110.079 L209.348,113.31 C208.791,113.392 208.248,113.451 207.717,113.488 L207.485,110.233 L207.485,110.233 Z M201.101,112.761 L202.093,109.65 C202.508,109.78 202.941,109.896 203.395,109.988 L202.735,113.187 C202.17,113.07 201.624,112.926 201.101,112.761 L201.101,112.761 Z M210.264,109.826 C210.71,109.729 211.171,109.616 211.646,109.484 L212.521,112.63 C211.987,112.778 211.466,112.909 210.952,113.02 L210.264,109.826 L210.264,109.826 Z M198.001,111.382 L199.648,108.563 C200.023,108.783 200.421,108.988 200.842,109.173 L199.515,112.158 C198.982,111.919 198.477,111.66 198.001,111.382 L198.001,111.382 Z M195.284,109.371 L197.488,106.966 C197.809,107.259 198.155,107.547 198.528,107.825 L196.587,110.45 C196.117,110.1 195.682,109.739 195.284,109.371 L195.284,109.371 Z M193.044,106.87 L195.677,104.939 C195.926,105.281 196.213,105.639 196.535,105.997 L194.099,108.176 C193.7,107.729 193.351,107.287 193.044,106.87 L193.044,106.87 Z M191.321,103.941 L194.307,102.622 C194.399,102.833 194.599,103.257 194.922,103.8 L192.117,105.468 C191.716,104.795 191.457,104.255 191.321,103.941 L191.321,103.941 Z" id="Fill-46" fill="#000000"></path>
                <path d="M113.76,297.134 C113.76,298.948 115.23,300.419 117.046,300.419 C118.861,300.419 120.333,298.948 120.333,297.134 C120.333,295.318 118.861,293.848 117.046,293.848 C115.23,293.848 113.76,295.318 113.76,297.134 L113.76,297.134 Z" id="Stroke-47" stroke="#FFFFFF" stroke-width="2.045"></path>
                <path d="M187.776,96.717 L216.202,93.496 L221.386,107.149 L217.924,87.848 L189.174,90.425" id="Fill-48" fill="#619210"></path>
                <path d="M142.47,290.369 C139.472,289.878 137.345,287.291 137.345,284.351 C137.345,284.023 137.371,283.693 137.424,283.364 C137.911,280.365 140.5,278.237 143.444,278.237 C143.768,278.237 144.097,278.262 144.425,278.316 C147.421,278.803 149.553,281.392 149.553,284.338 C149.553,284.662 149.528,284.988 149.473,285.322 C148.984,288.314 146.398,290.447 143.454,290.447 C143.133,290.447 142.804,290.421 142.47,290.369 L142.47,290.369 Z M138.743,284.351 C138.741,286.61 140.384,288.613 142.693,288.987 C142.951,289.029 143.205,289.049 143.454,289.049 C145.718,289.049 147.719,287.402 148.093,285.099 C148.135,284.842 148.155,284.586 148.155,284.338 C148.155,282.071 146.511,280.068 144.201,279.697 C143.947,279.654 143.692,279.635 143.444,279.635 C141.176,279.635 139.176,281.275 138.805,283.588 C138.764,283.846 138.741,284.101 138.743,284.351 L138.743,284.351 Z" id="Fill-49" fill="#FFFFFF"></path>
                <path d="M179.381,135.133 C179.182,132.926 177.232,131.299 175.025,131.498 C172.82,131.696 171.192,133.647 171.392,135.853 C171.441,136.402 171.599,136.916 171.844,137.375 C174.284,137.791 176.635,137.879 178.748,137.648 C179.214,136.924 179.464,136.056 179.381,135.133" id="Fill-50" fill="#000000"></path>
                <path d="M180.535,92.867 L159.353,73.298 L145.305,83.386 L153.132,68.104 L182.785,87.509" id="Fill-51" fill="#000000"></path>
                <path d="M149.671,147.137 L151.775,145.099 L165.543,159.31 C171.726,156.938 176.165,156.586 179.786,156.59 C181.162,156.594 182.415,156.643 183.6,156.639 C188.324,156.585 192.093,156.12 200.407,148.76 L200.41,148.763 L202.363,150.944 C193.91,158.599 188.718,159.625 183.6,159.57 C182.339,159.57 181.091,159.522 179.786,159.522 C176.187,159.531 172.065,159.84 165.72,162.391 L164.804,162.761 L149.671,147.137" id="Fill-52" fill="#619210"></path>
                <path d="M157.513,320.802 C165.164,318.656 175.489,316.37 186.117,315.788 L185.964,312.998 C168.974,313.932 153.003,319.049 146.707,321.287 L148.112,323.756 C150.31,322.984 153.536,321.917 157.513,320.802" id="Fill-53" fill="#619210"></path>
                <path d="M184.698,323.451 L150.545,328.03 L152.037,330.651 L185.07,326.222 L184.698,323.451" id="Fill-54" fill="#619210"></path>
                <path d="M56.815,288.031 L65.204,281.508 L22.336,243.842 L13.005,269.391 L27.313,281.244 L27.313,281.245 L61.94,309.936 L5.667,350.133 C0.542,379.288 0.396,403.117 0.475,409.77 C0.594,410.312 0.71,410.823 0.815,411.285 L73.614,324.09 L81.515,314.131 L56.815,288.031" id="Fill-55" fill="#CEE7A2"></path>
                <path d="M56.815,288.031 L58.496,286.725 L53.022,282.371 L56.396,279.334 L54.435,277.157 L48.486,282.506 L61.028,292.485 L56.815,288.031" id="Fill-56" fill="#619210"></path>
                <path d="M33.487,286.362 L35.748,288.234 L50.348,268.455 L48.138,266.512 L33.487,286.362" id="Fill-57" fill="#619210"></path>
                <path d="M24.339,278.781 L26.597,280.651 L42.642,261.684 L40.44,259.749 L24.339,278.781" id="Fill-58" fill="#619210"></path>
                <path d="M38.297,257.866 L35.976,255.826 L13.115,269.085 L13.005,269.391 L15.238,271.24 L38.297,257.866" id="Fill-59" fill="#619210"></path>
                <path d="M168.434,18.185 L166.248,9.662 L174.96,15.389 L171.795,4.165 L181.485,12.359 L177.991,0.033 C177.991,0.033 185.913,10.262 206.208,12.834 L199.428,24.011" id="Fill-60" fill="#CEE7A2"></path>
                <path d="M200.954,40.101 C187.332,34.045 179.877,22.946 175.804,13.285 C174.585,10.388 173.679,7.629 173,5.182 L171.795,4.165 L174.956,15.377 C174.953,15.379 174.95,15.379 174.946,15.379 L174.22,14.902 C178.496,24.689 186.21,35.807 200.101,42.018 L200.954,40.101" id="Fill-61" fill="#A8CD25"></path>
                <path d="M168.287,17.607 C167.925,17.752 167.571,17.91 167.211,18.063 C172.629,27.57 181.729,39.705 194.798,44.623 L195.53,42.658 C184.774,38.67 176.618,29.173 171.2,20.619 C169.702,18.256 168.419,15.979 167.337,13.907 L168.287,17.607" id="Fill-62" fill="#A8CD25"></path>
                <path d="M212.55,151.59 L214.708,150.016 C212.462,143.235 207.965,137.484 202.099,133.647 L201.351,136.201 C206.649,139.874 210.651,145.272 212.55,151.59" id="Fill-63" fill="#A8CD25"></path>
                <path d="M218.082,147.556 L220.196,146.015 C217.061,138.053 211.309,131.414 203.996,127.154 L203.265,129.655 C210.019,133.756 215.284,140.052 218.082,147.556" id="Fill-64" fill="#A8CD25"></path>
            </g>
        </g>
    </g>
</svg>