<svg xmlns="http://www.w3.org/2000/svg" width="330" height="450"><g fill="none"><g><path fill="#000" d="M202.3 337.3L257 310l-25.5-123.4"/><path fill="#fff" d="M181.2 297.8c17 30-.7 71.8-39.3 93.5-38.6 21.7-83.5 15-100.4-15-17-29.8.7-71.6 39.3-93.4 38.4-21.8 83.4-15 100.2 14.8"/><path fill="#000" d="M109.7 331.6s-6.3-5.6-13.5-2.3-4 10.5-8 11.5c-4.4 1-8.6 1-8.6 5 0 3.8-.4 17.2 17.3 14.3"/><path fill="#619210" d="M168.3 165.8L58 449.4l166-3.7s-45.3-32-21.7-100c23.5-67.7 47-130.2 26.7-164.5"/><path fill="#000" d="M130 311.6l-7.5 22.6 19.5-2"/><path fill="#000" d="M149.5 210l18.8-44.2 66.2 12.8"/><path fill="#619210" d="M178 138.6l-1.7 68.7 33.7-17 4-89.3"/><path fill="#000" d="M322.4 204l-90.2-25s53.6-13.7 90.2 25"/><path fill="#000" d="M320.7 161.2L234 178.8s31.8-42.7 86.7-17.6"/><path fill="#619210" d="M85.3 224.2l17 49.6 8.8-46-12.6-7"/><path fill="#000" d="M143.4 196.7L39.6 256.4 31.8 246l110.5-51.7"/><path fill="#fff" d="M52.2 236.4L31.8 246l7.8 10.4 17.4-10 2-1.2-6.8-8.8"/><path fill="#000" d="M39.8 255.6s-3.3 9.3-15 13c-11.7 3.6-11.4 14.7-11.4 14.7S3 249.3 32 246"/><path fill="#CEE7A2" d="M113.3 267l-1.3-40.4c-16.8-15-34.7-7.8-34.7-7.8l1.6 5.6c13.7-4.8 23.7.4 28 3.5l-22.3 5.6 7.6 25.4 4.2-1.5-1.8-5.7 5.4-1.3 2.2 23.3 46 69.3 22.4-11-57.3-65"/><path fill="#A4C921" d="M87 241.7l19.6-7.2-.4-1-19.4 7 .3 1.2"/><path fill="#A4C921" d="M105.7 242l-.4-1-16.8 5.5.4 1 16.7-5.5"/><path fill="#619210" d="M155 307l-17.4 31.5 12 16.6 26-23.7"/><path fill="#619210" d="M175.6 20.4c-.2 11-9.4 20-20.4 19.7-11 0-20-9.3-19.7-20.3.2-11 9.3-20 20.4-19.7 11 .2 19.8 9.3 19.6 20.4"/><path fill="#619210" d="M218.2 26.3S219.2 10 200 7c-9.6-1.6-15.7 10.5-29.6-.6C158-3.6 155 8 155 8l-3 24"/><path fill="#619210" d="M261.2 58c-.2 13.5-11.4 24.2-25 24-13.5-.3-24.2-11.4-24-25 .3-13.5 11.4-24.3 25-24 13.5.2 24.3 11.4 24 25"/><path fill="#619210" d="M235 115c-.2 11-9 19.5-20 19.3-10.8-.2-19.4-9.2-19.2-20 .2-10.8 9.2-19.4 20-19.2 10.8.3 19.4 9.2 19.2 20"/><path fill="#619210" d="M249 93.8c-.3 10.8-9.3 19.4-20 19.2-11-.2-19.6-9-19.4-20 .2-10.8 9.2-19.4 20-19.2 10.8.2 19.5 9 19.3 20"/><path fill="#619210" d="M244.5 85c-.2 10.8-9.2 19.4-20 19.2-10.8-.2-19.5-9-19.3-20 .2-10.8 9.2-19.4 20-19.2 10.8.2 19.5 9 19.3 20"/><path fill="#A4C921" d="M142 14.8c0-3.5 1.3-7.5 6-9.6 1.3-.6 2.7-1 4-1 4 0 7.3 2.7 11 5.4 3.6 2.8 7.6 5.8 13 7.2 1.3.4 2.7.5 4 .5 6.7 0 12.5-4.5 22.5-4.6 4.2 0 9.2 1 15.3 3.3l-.5 1.4c-6-2.4-10.8-3.3-14.8-3.3-9.5 0-15 4.7-22.6 4.7-1.5 0-3 0-4.4-.5-5.6-1.5-9.8-4.7-13.5-7.5-3.6-2.7-6.7-5-10-5-1 0-2.2.2-3.5.8-4 1.8-5 5-5 8.3 0 1.8.3 3.6.7 5l.7 2-1.4.7S142 19 142 14.8"/><path fill="#fff" d="M217.3 45.8l-5 87-73.2 15.8-5.3-41.2-23-7.6L119 56c7.6-41.3 24.2-41.5 76.6-33.8l15.7 2"/><path fill="#CEE7A2" d="M135.4 65l2-43c-9.6 5-15 15.4-18.3 34l-1.6 9h18"/><path fill="#CEE7A2" d="M139.5 99.4s.6-34 30.5-42C200 49 207.5 76 207.5 76l-52-1-2.2 24.5"/><path fill="#619210" d="M186 55.8L158 52l-1.5 15"/><path fill="#A4C921" d="M155.5 75.2l1.4-11.7S192 38 208 77L155.6 75"/><path fill="#fff" d="M189.4 79.6c0 7.6-6 13.7-13.6 13.7s-13.7-6-13.7-13.7C162 72 168.3 66 176 66c7.5 0 13.6 6 13.6 13.6"/><path fill="#A4C921" d="M136.4 76c0 4-3.2 7-7 6.8-3.8 0-6.8-3.2-6.8-7s3.2-6.8 7-6.8c4 0 7 3.3 6.8 7"/><path fill="#619210" d="M138 149l5-1.2 1-48.2-11.2-.2 3.5-39.7-17-4.4-10 44.5s20.7 8.5 27.8 45l1 4"/><path fill="#A4C921" d="M137.5 76c0 4-3.2 7-7 6.8-3.8 0-7-3.2-6.8-7 0-3.8 3.2-6.8 7-6.8 4 0 7 3.2 6.8 7"/><path fill="#CEE7A2" d="M119.8 80l17.8-7-1.4-9c-8.5.6-15.4 7.4-16.4 16"/><path fill="#CEE7A2" d="M174.6 110.2l-2.7 31.3 40.3-8.8 2.7-46c-3.8 5-18.2 23-40.4 23.5"/><path fill="#A4C921" d="M184.4 77.6c0 3.8-3.2 7-7 6.8-3.8 0-6.8-3.2-6.8-7s3.3-7 7-6.8c4 0 7 3.2 6.8 7"/><path fill="#CEE7A2" d="M175.8 66c-4 0-7.4 1.6-10 4.3L189 83c.3-1 .4-2.2.4-3.4 0-7.5-6-13.6-13.6-13.6"/><path fill="#000" d="M179.5 79c0 1.2-1 2-2.2 2-1.2 0-2-1-2-2 0-1.3 1-2.2 2-2.2 1.3 0 2.3 1 2.2 2.2"/><path fill="#000" d="M132.8 77c0 1.3-1 2.2-2.2 2.2-1.2 0-2.2-1-2-2.2 0-1.2 1-2 2-2 1.2 0 2.2 1 2.2 2"/><path fill="#000" d="M116.8 79.4l19-7.4.6 1.7-19 7.5-.6-1.8"/><path fill="#000" d="M121 56l14.8 4.6.2-7.2-15 2.5"/><path fill="#000" d="M138.6 97.7s5.3-4.7 13 .2"/><path fill="#000" d="M187.8 83l2.3-4.2 1.8 1-2.4 4-1.6-1zm-3.3-2l2.4-4 1.5 1-2.3 4-1.7-1zm-3.2-2l2.3-4 1.7 1-2.4 4-1.7-1zm-3.3-1.8l2.4-4 1.6 1-2.4 4-1.6-1zm-3.3-2l2.4-4 1.7 1-2.3 4-1.7-1z"/><path fill="#000" d="M117 74.8l1.8-.7 1.7 4.5-1.8.7-1.7-4.4zm3.5-1.3l1.8-.7 1.7 4.4-1.8.6-1.7-4.3zM124 72l1.8-.6 1.7 4.4-1.8.7L124 72zm3.5-1.3l1.8-.6 1.7 4.5-1.8.6-1.7-4.3z"/><path fill="#619210" d="M163.3 110.3l-20 12.5-.3-5-5.2-4.3-1-4 7 3 19.5-2.2"/><path fill="#000" d="M143 115.2l20-4.7v1l-19.7 4.6-.2-.8"/><path fill="#000" d="M165.3 71.5l1-1.6 25 13.8-1 1.6-25-14"/><path fill="#619210" d="M187 27c-2.3 9.3 5.2 19 17 22 11.5 3 22.8-2 25.2-11.2 2.3-9.2-5.2-19-17-22-11.5-3-23 2-25.2 11.3"/><path fill="#fff" d="M144.3 72.4l-8.3-20-2.2 39.5 4-6.6"/><path fill="#fff" d="M226.8 113c0 2.2-2 4-4.3 4-2.2 0-4-2-4-4.2 0-2.3 2-4 4.2-4 2.3 0 4 1.8 4 4"/><path fill="#000" d="M153.4 332.5c0 1.6-1.2 2.8-2.7 2.8-1.6 0-2.8-1.2-2.8-2.8 0-1.5 1-2.7 2.7-2.7 1.5 0 2.7 1.2 2.7 2.7"/><path fill="#A4C921" d="M93 284.7c-9 .4-15 14.3-4.7 16.6 10.3 2.4.8 12.7 4 15 3 2.4 8.7 3.2 8-4.7-1-8 6.8-9 7-14 .3-5-7-16-14.2-13"/><path fill="#A4C921" d="M231.3 77.2c-1.2-.8-1.7-2-1.7-3.6 0-2.4.8-6 1.3-12.6v-2.3c0-7-2.5-9.5-6.7-11.4-4.2-1.8-10.2-2.5-16.7-5-10.4-4-13.5-10.2-13.5-16 0-7 4.6-12.7 4.6-12.8l1 .8s-1 1.4-2 3.7c-1 2.2-2 5.2-2 8.4 0 5 2.5 10.7 12.5 14.6 6.5 2.4 12.4 3 17 5 4.4 2 7.4 5.4 7.4 12.7V61c-.6 6.8-1.4 10.5-1.4 12.6 0 1.4.3 1.8 1 2.5 1 .7 2.6 1.3 5.3 2.3l-.5 1.3c-2.7-1-4.4-1.5-5.5-2.4"/><path fill="#A4C921" d="M243.2 67c-2-4.8-1.4-12-3-20.8-1-5.5-4-8.6-7.4-10.2-3.5-1.5-7.6-1.7-11.6-1.7h-2.8c-3.8 0-7.2 0-9.4-1.4-5-3-6.4-6.3-6.4-9.5 0-2.4.8-4.7 1.7-6.4.8-1.6 1.7-2.6 1.7-2.6l-1-1s-3.8 4.7-4 10c0 3.7 2 7.8 7.3 10.7 2.7 1.7 6.3 1.7 10 1.8h3c3.8 0 7.8 0 11 1.5 3 1.4 5.4 4 6.4 9.2 1.7 8.5 1.2 15.7 3.2 21 1.4 4.2 4.6 7 11.2 8l1.3-1c-7-1-9.8-3.6-11.3-7.5"/><path fill="#CEE7A2" d="M238 95.4c-6 8.7-15 13-20 9.5-5-3.6-4.2-13.5 1.8-22.2s15-13 20-9.4c5 3.5 4.2 13.3-2 22"/><path fill="#000" d="M234.3 178l-84.8 32 20.7 47.2 64-79"/><path fill="#A4C921" d="M211 206.4c0-1.4 1.2-2.6 2.6-2.7l20.7-25.6-4.3 1.7c-.2 1.3-1.3 2.3-2.6 2.3h-.6c-.4 0-.8-.4-1.2-.6l-5.3 2h.3c1.5 0 2.7 1.2 2.7 2.7 0 1.6-1.2 2.8-2.7 2.8h-.6c-1.2-.3-2-1.4-2-2.7 0-.8.3-1.6 1-2l-9.7 3.5c-.5.8-1.3 1.3-2.3 1.3h-.7l-4.8 1.7c.8.4 1.4 1.3 1.4 2.4 0 1.4-1.3 2.6-2.8 2.6h-.5c-1.3-.3-2.2-1.4-2.2-2.7 0-.5 0-.8.2-1l-15.8 6c.3.4.6 1 .6 1.6 0 1.5-1.3 2.8-2.8 2.8-1.4 0-2.6-1.2-2.7-2.7l-15 5.7.2 1c0 .4 0 .7-.2 1v.3c-.6.8-1.5 1.4-2.5 1.4h-1c-.8-.4-1.3-1-1.6-1.7l-7.5 2.8.8 2c.5-1 1.4-1.5 2.4-1.5 1.5 0 2.7 1.2 2.7 2.7 0 1.5-1.2 2.7-2.7 2.7-.2 0-.5 0-.7-.2l6.7 15.2.8-.2h.5l.4.2c.3 0 .4.2.5.3 0 0 .2 0 .3.2l.2.3.2.2.3.5v.5c.2.2.2.4.2.6 0 1-.5 1.8-1.4 2.3l7 15.7c.7.4 1.2 1.3 1.2 2.2v.3l1.2 3 17-21h-.6c-1.5 0-2.7-1.2-2.7-2.7 0-1.5 1-2.8 2.6-2.8h.6l.4.2c.2 0 .4.2.5.3h.2l.2.2h.2v.3l.3.2v.5h.2v1.1l3.6-4.2c-1.2-.3-2-1.4-2-2.6 0-1.5 1-2.7 2.6-2.7 1 0 2 .7 2.5 1.6l2.6-3.4c-.7-.5-1-1.3-1-2.2 0-1.3.8-2.4 2-2.7h.6c.7 0 1.3.2 1.8.7l2.7-3.3c-.3-.5-.4-1-.4-1.5 0-1.5 1.2-2.7 2.7-2.7.3 0 .6 0 1 .2l3-4v-.3zM214 190c1.5 0 2.7 1.4 2.7 3 0 1.4-1.2 2.6-2.7 2.6-1.5 0-2.7-1.2-2.7-2.7 0-1.6 1.3-3 2.8-3zm-54.3 32.7c-1.5 0-2.7-1.2-2.7-2.7 0-1.5 1.2-2.7 2.7-2.7 1.5 0 2.7 1.2 2.7 2.7 0 1.5-1.2 2.7-2.7 2.7zm6.8 20.4c-.7 0-1.3-.2-1.7-.6-.6-.5-1-1.2-1-2 0-1 .4-1.6 1-2 .4-.5 1-.8 1.7-.8 1.5 0 2.7 1.2 2.7 2.7 0 1.5-1.2 2.8-2.7 2.8zm0-13.5c-1.5 0-2.7-1.2-2.7-2.7 0-1.5 1.2-2.7 2.7-2.7 1.5 0 2.7 1.3 2.7 2.8 0 1.5-1.2 2.7-2.7 2.7zm0-13.6c-.7 0-1.3-.3-1.7-.7-.6-.5-1-1.3-1-2 0-1 .4-1.7 1-2.2.4-.3 1-.5 1.7-.5 1.5 0 2.7 1.2 2.7 2.7 0 1.5-1.2 2.7-2.7 2.7zm6.8 33.8c-.6 0-1.2-.2-1.7-.6-.6-.5-1-1.2-1-2 0-1 .4-1.7 1-2.2.5-.3 1-.6 1.8-.6 1.6 0 2.8 1.2 2.8 2.7 0 1.6-1.2 2.8-2.7 2.8zm0-13.5c-.6 0-1.2-.3-1.7-.7-.6-.5-1-1.2-1-2 0-1 .4-1.6 1-2 .5-.5 1-.8 1.8-.8 1.6 0 2.8 1.3 2.8 2.8 0 1.5-1.2 2.7-2.7 2.7zm0-13.6c-.6 0-1.2-.2-1.7-.6-.6-.4-1-1.2-1-2 0-1 .4-1.6 1-2 .5-.5 1-.7 1.8-.7 1.6 0 2.8 1.2 2.8 2.7 0 1.5-1.2 2.7-2.7 2.7zm2.8-16.3c0 1-.7 2-1.7 2.5h-2l-.7-.5c-.6-.5-1-1.2-1-2 0-1 .4-1.7 1-2.2.5-.3 1-.6 1.8-.6 1.6 0 2.8 1.2 2.8 2.7zm4 36.7c-1.5 0-2.7-1.2-2.7-2.7 0-1.5 1.3-2.7 2.8-2.7 1.5 0 2.8 1.2 2.8 2.7 0 1.5-1.3 2.8-2.8 2.8zm0-13.5c-1.5 0-2.7-1.2-2.7-2.7 0-1.5 1.3-2.7 2.8-2.7 1.5 0 2.8 1.3 2.8 2.8 0 1.5-1.3 2.7-2.8 2.7zm0-13.6c-1.5 0-2.7-1.3-2.7-2.8 0-1.5 1.3-2.7 2.8-2.7 1.5 0 2.8 1.2 2.8 2.7 0 1.5-1.3 2.7-2.8 2.7zm6.8 6.7c-1.5 0-2.7-1.2-2.7-2.7 0-1.5 1-2.7 2.6-2.7 1.5 0 2.7 1.2 2.7 2.7 0 1.5-1.2 2.7-2.7 2.7zm2.7-16.3c0 .4 0 .7-.2 1v.3c-.4.8-1.3 1.4-2.4 1.4h-1c-1-.5-1.7-1.5-1.7-2.6 0-1.5 1-2.7 2.6-2.7 1.5 0 2.7 1.2 2.7 2.7zm4 9.5h-.4c-1.4-.4-2.3-1.5-2.3-2.8 0-1.3 1-2.4 2.2-2.7h.4c1.5 0 2.7 1.2 2.7 2.7 0 1.5-1 2.7-2.6 2.7zm0-13.6c-1.4 0-2.6-1.3-2.6-2.8 0-1.5 1.2-2.7 2.7-2.7 1.5 0 2.7 1 2.7 2.6 0 1.5-1 2.8-2.6 2.8zm9.6 4c0 1-.8 2-1.7 2.5h-2.1c-1-.5-1.7-1.5-1.7-2.6 0-1.3 1-2.4 2.2-2.6h.5c1.5 0 2.7 1 2.7 2.6zm4-4c-1.5 0-2.7-1.3-2.7-2.8 0-1.5 1.2-2.7 2.7-2.7 1.5 0 2.7 1 2.7 2.6 0 1.5-1.2 2.8-2.7 2.8z"/><path fill="#619210" d="M49.6 356.7s-4.4 9.4 4.4 10c8.8.3 8 2.7 8.8 4.3.7 1.5 8 7.7 8.6-2 .4-9.7-3.8-5.3-3.8-11.2 0-6-2-11-7.5-10.8-5.4.2-2 8-3.8 8.8-1.8 1-3.3-2.4-6.6 1"/><path fill="#CEE7A2" d="M55 319.5s8.5-12 19.3-8.8c10.8 3.2 10.8 23 4 23-7 0-2-3.7-2-10.3 0-6.5-4 4-7.5 5.3-3.6 1.3-22.3 4-13.8-9.2"/><path fill="#fff" d="M240 73.4c-5-3.5-14 .7-20.2 9.4-4.4 6.4-6 13.4-4.7 18l28-22.5c-.6-2-1.6-3.8-3-5"/></g></g></svg>