<?xml version="1.0" encoding="utf-8"?>
<!-- Generated by IcoMoon.io -->
<!DOCTYPE svg PUBLIC "-//W3C//DTD SVG 1.1//EN" "http://www.w3.org/Graphics/SVG/1.1/DTD/svg11.dtd">
<svg version="1.1" xmlns="http://www.w3.org/2000/svg" xmlns:xlink="http://www.w3.org/1999/xlink" width="24" height="24" viewBox="0 0 24 24">
<path fill="#444444" d="M19 9v-3c0-2-2-5-7-5s-7 3-7 5v3h-2v11c0 1.654 1.346 3 3 3h12c1.654 0 3-1.346 3-3v-11h-2zM7 5c0 0 1-2 5-2s5 2 5 2v4h-10v-4zM19 20c0 0.551-0.448 1-1 1h-12c-0.552 0-1-0.449-1-1v-9h14v9zM11 16.723v2.277h2v-2.277c0.596-0.347 1-0.984 1-1.723 0-1.104-0.896-2-2-2s-2 0.896-2 2c0 0.738 0.404 1.376 1 1.723z"></path>
</svg>
